<svg xmlns="http://www.w3.org/2000/svg" xmlns:xlink="http://www.w3.org/1999/xlink" width="688" height="692" viewBox="0 0 688 692">
    <defs>
        <path id="a" d="M262.357 432.014h-118.38a136.844 136.844 0 0 0 8.15-4.367c17.886-10.387 32.451-24.29 43.338-40.334h47.743V353.23l8.374-6.884-4.917-5.981-3.457 2.841v-5.28h-15.923l.321-1.615s-7.507-1.843-9.183-1.843c-.136 0-.233.012-.283.04-.704.344-.794.828.016 1.06.813.236 8.409 2.323 8.409 2.323s-7.577-.562-10.415-.655c5.788-30.402 1.073-62.954-15.691-91.824-10.879-18.734-25.63-33.833-42.64-44.866v-9.368H140.76a133.977 133.977 0 0 0-55.707-12.151c-5.741 0-11.49.37-17.232 1.121a133.482 133.482 0 0 0-17.267-1.122c-16.88 0-33.922 3.208-50.206 9.869V78.699S.05 4.76 67.171.295h261.683c-8.398.542-15.738 2.244-22.145 4.797-43.412 17.284-44.352 73.607-44.352 73.607v353.315m-194.338-9.555c-25.823-4.038-50.047-17.089-67.67-37.825v27.151-159.092c12.388-3.364 26.31-5.664 41.22-5.664 10.29 0 21.045 1.096 32.094 3.694H34.755v6.616H94.38c12.9 5.246 26.028 12.768 39.117 23.16h-2.144v8.602h12.234c3.29 3 6.577 6.198 9.845 9.594h-22.08v8.598h29.962c.24.279.484.562.728.84 1.479 39.838-18.53 79.165-55.409 100.582-12.288 7.14-25.374 11.661-38.614 13.744m77.674-16.535c30.372-30.81 43.763-74.624 36.291-116.823h12.188c1.347 6.31 2.129 12.68 2.365 19.032.05 1.382.081 2.75.081 4.131 0 36.733-18.188 72.525-50.925 93.66m92.87-23.256h-40.086a133.602 133.602 0 0 0 10.054-19.73l10.643 10.035 19.388-15.927v25.622m-19.036-20.004l-8.056-7.596a134.7 134.7 0 0 0 3.554-12.498h3.151c-.163.306-.348 1.034 1.37 1.034.047 0 .093-.004.14-.004.1 0 .205-.004.321-.004 2.04 0 6.082.337 6.082.337l.271-1.363h12.203v4.453l-19.036 15.64M191.973 280.5h-11.808a132.607 132.607 0 0 0-8.045-23.16h9.95a111.708 111.708 0 0 1 9.903 23.16m-13.969-29.776h-9.113c-.93-1.781-1.909-3.554-2.927-5.308a133.995 133.995 0 0 0-12.389-17.848h3.933a111.077 111.077 0 0 1 20.496 23.156m-34.499 0a110.983 110.983 0 0 0-20.5-23.156h.004a111.077 111.077 0 0 1 20.496 23.156m5.428-29.772h-1.173c-.705-.747-1.417-1.49-2.133-2.219a109.4 109.4 0 0 1 3.306 2.219m-34.499 0a111.744 111.744 0 0 0-41.979-17.863h.004a111.727 111.727 0 0 1 41.975 17.863"/>
        <linearGradient id="b" x1="78.84%" x2="22.158%" y1="124.048%" y2="-21.486%">
            <stop offset="0%" stop-color="#FF9F54"/>
            <stop offset="100%" stop-color="#FFD254"/>
        </linearGradient>
        <path id="d" d="M76.226 253.15H41.731a134.546 134.546 0 0 0 8.146-4.367A133.265 133.265 0 0 0 77.94 227.06c32.738-21.134 50.926-56.927 50.926-93.66 0-1.382-.03-2.748-.081-4.13a110.874 110.874 0 0 0-2.366-19.033h7.317v-8.602h-9.516a111.708 111.708 0 0 0-9.903-23.16h19.42V71.86h-23.485a111.077 111.077 0 0 0-20.496-23.155h15.9v-6.617H81.182a109.398 109.398 0 0 0-3.307-2.218 132.488 132.488 0 0 0-18.529-15.645h30.72v-2.543c17.012 11.033 31.763 26.132 42.642 44.866 16.763 28.87 21.479 61.422 15.69 91.825-.247-.008-.46-.012-.626-.012-.202 0-.341.008-.4.023-.212.05-.379.376-.402.678h-20.906v49.389h1.65c-10.887 16.043-25.452 29.946-43.338 40.333-2.691 1.556-5.401 3.016-8.15 4.367m54.5-49.346h-.016v-40.097h16.562a134.7 134.7 0 0 1-3.554 12.497l-4.351-4.1-5.308 5.633 6.72 6.338a133.601 133.601 0 0 1-10.054 19.729M73.01 12.314H38.514A134.167 134.167 0 0 0 .07 1.284 132.765 132.765 0 0 1 17.302.161c19.245 0 38.274 4.173 55.707 12.152"/>
        <linearGradient id="e" x1="93.571%" x2="17.855%" y1="141.037%" y2="-107.313%">
            <stop offset="0%" stop-color="#E08D4D"/>
            <stop offset="100%" stop-color="#E0BB4D"/>
        </linearGradient>
        <path id="g" d="M50.783 39.362A112.027 112.027 0 0 1 .348 27.344V.194c17.624 20.735 41.848 33.786 67.67 37.824a110.91 110.91 0 0 1-17.235 1.344"/>
        <linearGradient id="h" x1="484.524%" x2="9.289%" y1="162.574%" y2="-374.831%">
            <stop offset="0%" stop-color="#E08D4D"/>
            <stop offset="100%" stop-color="#E0BB4D"/>
        </linearGradient>
        <path id="j" d="M162.042 105.266c-.244-.278-.488-.561-.728-.84h.693l.035.84m-.755-9.438h-7.855a210.654 210.654 0 0 0-9.845-9.594h16.09a110.198 110.198 0 0 1 1.61 9.594m-3.813-18.197h-23.977c-13.09-10.39-26.218-17.913-39.117-23.159h53.186c4.251 7.48 7.542 15.25 9.908 23.16M.348 49.825V10.081v27.124c7.972-9.357 17.635-17.538 28.87-24.065C40.082 6.83 51.568 2.563 63.233.22h9.222a111.744 111.744 0 0 1 41.979 17.864h-79.68V24.7h88.252a110.983 110.983 0 0 1 20.5 23.156H73.662c-11.05-2.598-21.804-3.694-32.095-3.694-14.909 0-28.83 2.3-41.22 5.664"/>
        <linearGradient id="k" x1="202.777%" x2="3.888%" y1="162.589%" y2="-89.85%">
            <stop offset="0%" stop-color="#ECAA76"/>
            <stop offset="100%" stop-color="#ECCD76"/>
        </linearGradient>
        <path id="m" d="M.348 38.367V11.243A111.002 111.002 0 0 1 34.755.347v1.035h28.478c-11.665 2.342-23.151 6.609-34.015 12.92C17.983 20.828 8.32 29.008.348 38.366"/>
        <linearGradient id="n" x1="521.394%" x2="9.996%" y1="352.632%" y2="-251.435%">
            <stop offset="0%" stop-color="#D79D70"/>
            <stop offset="100%" stop-color="#D7BD70"/>
        </linearGradient>
    </defs>
    <g fill="none" fill-rule="evenodd">
        <path fill="#E8913A" d="M570.703 136.357H309.02c-67.117 4.466-66.822 78.404-66.822 78.404v353.315H504.21V214.761s1.239-74.186 66.493-78.404"/>
        <path fill="#FFC155" d="M223.905 491.16h3.097V219.228h-3.097zM369.253 91.84h153.71V9.42h-153.71v82.42zm-3.097 3.098H526.06V6.324H366.156v88.614zM70.19 184.184h153.715V78.937H70.19v105.247zm-3.097 3.097h159.909V75.84H67.093v111.44zM523.083 361.752h153.71V279h-153.71v82.752zm-3.097 3.097h159.905v-88.946H519.986v88.946z"/>
        <g transform="translate(231.388 131.265)">
            <mask id="c" fill="#fff">
                <use xlink:href="#a"/>
            </mask>
            <path fill="url(#b)" d="M262.357 432.014h-118.38a136.844 136.844 0 0 0 8.15-4.367c17.886-10.387 32.451-24.29 43.338-40.334h47.743V353.23l8.374-6.884-4.917-5.981-3.457 2.841v-5.28h-15.923l.321-1.615s-7.507-1.843-9.183-1.843c-.136 0-.233.012-.283.04-.704.344-.794.828.016 1.06.813.236 8.409 2.323 8.409 2.323s-7.577-.562-10.415-.655c5.788-30.402 1.073-62.954-15.691-91.824-10.879-18.734-25.63-33.833-42.64-44.866v-9.368H140.76a133.977 133.977 0 0 0-55.707-12.151c-5.741 0-11.49.37-17.232 1.121a133.482 133.482 0 0 0-17.267-1.122c-16.88 0-33.922 3.208-50.206 9.869V78.699S.05 4.76 67.171.295h261.683c-8.398.542-15.738 2.244-22.145 4.797-43.412 17.284-44.352 73.607-44.352 73.607v353.315m-194.338-9.555c-25.823-4.038-50.047-17.089-67.67-37.825v27.151-159.092c12.388-3.364 26.31-5.664 41.22-5.664 10.29 0 21.045 1.096 32.094 3.694H34.755v6.616H94.38c12.9 5.246 26.028 12.768 39.117 23.16h-2.144v8.602h12.234c3.29 3 6.577 6.198 9.845 9.594h-22.08v8.598h29.962c.24.279.484.562.728.84 1.479 39.838-18.53 79.165-55.409 100.582-12.288 7.14-25.374 11.661-38.614 13.744m77.674-16.535c30.372-30.81 43.763-74.624 36.291-116.823h12.188c1.347 6.31 2.129 12.68 2.365 19.032.05 1.382.081 2.75.081 4.131 0 36.733-18.188 72.525-50.925 93.66m92.87-23.256h-40.086a133.602 133.602 0 0 0 10.054-19.73l10.643 10.035 19.388-15.927v25.622m-19.036-20.004l-8.056-7.596a134.7 134.7 0 0 0 3.554-12.498h3.151c-.163.306-.348 1.034 1.37 1.034.047 0 .093-.004.14-.004.1 0 .205-.004.321-.004 2.04 0 6.082.337 6.082.337l.271-1.363h12.203v4.453l-19.036 15.64M191.973 280.5h-11.808a132.607 132.607 0 0 0-8.045-23.16h9.95a111.708 111.708 0 0 1 9.903 23.16m-13.969-29.776h-9.113c-.93-1.781-1.909-3.554-2.927-5.308a133.995 133.995 0 0 0-12.389-17.848h3.933a111.077 111.077 0 0 1 20.496 23.156m-34.499 0a110.983 110.983 0 0 0-20.5-23.156h.004a111.077 111.077 0 0 1 20.496 23.156m5.428-29.772h-1.173c-.705-.747-1.417-1.49-2.133-2.219a109.4 109.4 0 0 1 3.306 2.219m-34.499 0a111.744 111.744 0 0 0-41.979-17.863h.004a111.727 111.727 0 0 1 41.975 17.863" mask="url(#c)"/>
        </g>
        <path fill="#FFDC94" d="M266.143 239.738H446.11v-15.88H266.143zM266.143 271.827h153.664V260.58H266.143zM266.143 306.977h77.244V290.27h-77.244zM366.214 306.977h79.896V290.27h-79.896zM266.143 334.353h123.064v-11.91H266.143zM266.143 358.833h138.654v-6.617H266.143zM266.143 388.605h166.734v-6.617H266.143zM266.724 447.572h76.083v-35.227h-76.083v35.227zm-1.162 1.161h78.406v-37.55h-78.406v37.55zM362.741 420.366h70.136v-8.602h-70.136zM362.741 438.559h49.71v-8.599h-49.71zM266.143 477.928h149.943v-6.616H266.143zM266.143 507.7h78.983v-6.616h-78.983z"/>
        <path fill="#FFCA55" d="M561.23 330.729l-7.728-12.651a2.203 2.203 0 0 1 3.759-2.295l5.463 8.947 14.526-8.598a2.202 2.202 0 0 1 2.241 3.788L561.23 330.73"/>
        <path fill="#FFCA55" d="M566.417 298.624c-13.132 0-23.817 10.685-23.817 23.819 0 13.134 10.685 23.819 23.817 23.819 13.136 0 23.822-10.685 23.822-23.82 0-13.133-10.686-23.818-23.822-23.818zm0 51.606c-15.323 0-27.79-12.466-27.79-27.787 0-15.323 12.467-27.79 27.79-27.79 15.324 0 27.79 12.467 27.79 27.79 0 15.32-12.466 27.787-27.79 27.787zM433.206 41.367l.542 11.68 4.638-.216-.913-19.593-20.008.93.217 4.637 12.094-.563-21.32 23.402-22.184-20.21-3.128 3.43L408.762 68.2l24.444-26.833M121.697 143.85c.008-2.219-.871-3.898-2.633-5.038-1.761-1.14-4.227-2.169-7.398-3.087l-.05 14.973c3.225-.039 5.71-.636 7.456-1.79 1.742-1.154 2.617-2.84 2.625-5.059zM99.924 118.67c-.008 2.117.731 3.708 2.214 4.772 1.483 1.063 3.736 2.004 6.76 2.82l.046-14.898c-3.074.141-5.346.852-6.81 2.133-1.467 1.28-2.203 3.006-2.21 5.173zm24.96-1.885c-.45-.505-1.12-1.05-1.998-1.632-.88-.582-1.901-1.14-3.059-1.674a25.013 25.013 0 0 0-3.813-1.374 21.967 21.967 0 0 0-4.27-.732l-.051 15.654 1.436.307c2.718.665 5.177 1.405 7.368 2.217 2.187.815 4.038 1.804 5.548 2.968a12.019 12.019 0 0 1 3.5 4.284c.828 1.693 1.238 3.747 1.23 6.167-.01 2.674-.499 4.952-1.459 6.84a13.35 13.35 0 0 1-3.988 4.713c-1.691 1.255-3.662 2.194-5.907 2.817-2.246.622-4.654.955-7.225.997l-.027 7.94-3.933-.012.027-8.092c-3.628-.264-7.081-.993-10.353-2.189a32.542 32.542 0 0 1-8.981-4.983l3.879-7.247c.553.607 1.359 1.265 2.412 1.974 1.057.71 2.292 1.395 3.7 2.054a34.2 34.2 0 0 0 4.647 1.754c1.684.511 3.438.87 5.25 1.077l.054-15.654c-.306-.102-.62-.192-.945-.268-.329-.077-.643-.166-.945-.268-2.67-.714-5.002-1.465-6.988-2.254-1.99-.787-3.639-1.738-4.944-2.852-1.308-1.113-2.3-2.415-2.977-3.904-.673-1.489-1.01-3.293-1.003-5.41.008-2.47.446-4.662 1.31-6.576a14.419 14.419 0 0 1 3.646-4.941c1.564-1.38 3.395-2.459 5.49-3.234 2.094-.775 4.406-1.258 6.926-1.452l.027-7.638 3.93.013-.024 7.638c3.276.212 6.3.878 9.067 1.995 2.769 1.119 5.212 2.463 7.325 4.032l-3.883 6.945z"/>
        <path fill="#DED4CE" d="M148.867 116.513h62.773v-8.933h-62.773zM148.867 136.027h49.339v-8.933h-49.339zM148.867 155.54h55.363v-8.932h-55.363zM605.728 315.084h44.852v-8.932h-44.852zM605.728 334.597h50.326v-8.931h-50.326zM451.898 35.583h57.066V26.65h-57.066zM451.898 55.097h44.851v-8.932h-44.851zM451.898 74.61h50.326V65.68h-50.326zM561.79 423.897h-48.525V420.8h45.429v-54.027h3.097v57.124M329.225 126.263h-3.097v-15.766h105.197V99.471h3.097v14.124H329.225v12.668M211.64 311.84h-55.223V192.761h3.097v115.98h52.126v3.097"/>
        <path fill="#FFC155" d="M513.335 263.474h-3.097v-35.977c-.043-.595-3.88-69.636 54.379-79.681l.526 3.052c-55.544 9.577-51.855 75.86-51.812 76.528l.004 36.078M687.584 332.614h-3.097v-60.977h-65.444v-3.097h68.54v64.074M120.787 196.361H58.576v-58.615h3.097v55.518h59.114v3.097M362.032 46.165h-3.097V0h77.19v3.097h-74.093v43.068M514.814 578.514H458.18v-3.098h53.536v-85.788h3.097v88.886"/>
        <path fill="#FFDC94" d="M429.85 513.933h40.1v-40.097h-40.1v40.097zm-4.646 4.646h49.393V469.19h-49.393v49.389z"/>
        <path fill="#FFDC94" d="M450.562 504.239L433.2 487.866l5.307-5.633 12.409 11.696 27.139-22.3 4.917 5.982-32.409 26.628"/>
        <path fill="#EEA987" d="M523.32 408.98s-9.416 1.588-7.817 16.326c1.595 14.74 9.907 13.438 10.46 13.42.558-.024 8.36.177 8.774-17.845 0 0 .116-13.325-11.417-11.9"/>
        <path fill="#EEA987" d="M519.193 434.695s.363 6.113-.21 7.433c-.573 1.32 7.523 5.451 12.575.693 0 0-1.022-6.628-.705-8.97.318-2.342-11.66.844-11.66.844M515.31 421.14s-1.046-1.091-1.41.028c-.368 1.123 1.32 5.954 1.541 6.314 0 0 .194.434.437.19.244-.24-.569-6.531-.569-6.531M534.628 420.742s1-1.134 1.41-.027c.414 1.103-1.092 6.067-1.282 6.372 0 0-.321.508-.577.28-.255-.233.45-6.625.45-6.625"/>
        <path fill="#C78D71" d="M530.207 436.755s-1.502 2.086-4.99 2.005c-3.493-.077-5.01-1.897-5.01-1.897s1.653 3.457 5.025 3.418c3.368-.034 4.975-3.526 4.975-3.526"/>
        <path fill="#1D2033" d="M554.253 626.288s1.29 2.892 2.373 4.042c1.084 1.146 5.238 3.194 5.262 6.6.023 3.694-7.004 2.668-9.753 2.533-2.749-.136-2.954-2.106-4.111-4.2-1.158-2.091-2.327-1.735-2.544-3.423-.217-1.684.887-5.459.887-5.459l7.886-.093"/>
        <path fill="#50558A" d="M554.373 625.22l.201 1.753s-4.32 1.448-8.409.151l.229-2.392 7.979.488"/>
        <path fill="#EEA886" d="M468.677 471.621s-2.842-.89-3.07-2.57c-.194-1.433-1.479-3.14-1.874-3.667-.526-.704-1.34-3.472-2.234-2.814-.898.658 1.12 4.622 1.379 5.54.255.917-3.628-.829-4.588-.589s-3.485 6.837-.682 7.724c2.803.89 6.385-.012 6.85.244.46.252 2.012.728 2.012.728l2.207-4.596"/>
        <path fill="#EEA886" d="M458.994 467.576s-8.765-2.15-9.465-1.805c-.705.345-.794.829.015 1.061.813.236 8.409 2.323 8.409 2.323s-10.802-.801-11.44-.642c-.372.089-.6 1.014-.178 1.176.422.167 11.08 1.576 11.08 1.576s-10.082-.732-10.577-.441c-.434.255-.43 1.154.313 1.258.744.105 10.066 1.312 10.066 1.312s-7.371-.07-7.646.422c-.166.302-.399 1.092 1.502 1.05 1.905-.043 6.404.333 6.404.333l1.517-7.623"/>
        <path fill="#DBDFF0" d="M510.3 462.175s-2.277 4.018-5.32 8.537c-.279.414-.565.836-.855 1.254l-.004.008c-.395.569-.802 1.142-1.212 1.71a87.31 87.31 0 0 1-1.498 2.01c-2.823 3.659-5.796 6.771-8.05 7.329-4.877 1.2-29.392-4.235-29.392-4.235l1.897-9.637s8.595 2.923 14.337 3.403c3.523.295 7.917 1.452 8.436 1.123.522-.325 10.577-14.828 11.293-16.392.72-1.564 3.933-7.7 6.67-10.635 2.741-2.934 5.719-1.816 5.719-1.816 8.215 5.347-2.021 17.34-2.021 17.34"/>
        <path fill="#202338" d="M499.223 625.433s-3.79 3.983-7.638 4.816c-3.852.832-6.543 1.897-6.57 4.18-.031 2.285 11.072 3.791 15.478 1.488 6.574-3.434 7.24-2.4 7.972-4.12.727-1.715-.875-6.31-.829-6.856.058-.678-8.413.491-8.413.491"/>
        <path fill="#2F6B8C" d="M499.65 623.528s-.5 1.866-.427 1.904c.074.043 8.672 1.003 8.413-.491-.213-1.216-.511-2.532-.511-2.532l-7.476 1.119"/>
        <path fill="#292C47" d="M508.321 511.525s-3.98 28.924-5.61 38.703c-1.9 11.433-2.543 20.88-3.073 26.795-.666 7.441-1.553 45.533-2.021 47.709-.465 2.176 11.599 1.045 11.599 1.045s6.322-49.656 8.308-57.58c1.85-7.384 7.236-39.262 8.924-37.245 1.688 2.013 8.904 38.39 10.155 44.209 1.246 5.819 8.238 52.501 8.238 52.501s7.484 1.36 12.021-.929c0 0-3.515-40.832-4.313-51.746-.305-4.158-1.045-49.85-8.076-68.251-3.716-9.725-36.152 4.789-36.152 4.789"/>
        <path fill="#DBDFF0" d="M520.006 442.155s-10.539 2.18-11.79 3.287c-1.354 1.181-3.75 12.722-3.894 15.935-.14 3.214 1.27 16.644 2.629 21.642 1.359 5.002.863 29.602.008 36.532 0 0 15.613 6.992 41.967.646 0 0-4.588-22.81-3.752-29.663 1.069-8.777 3.171-30.318 3.171-30.318s.066-13.179-1.793-14.75c-1.854-1.572-15.524-3.31-15.524-3.31h-11.022"/>
        <path fill="#DBDFF0" d="M540.602 444.83s-6.601 1.82-2.97 13.934c2.846 9.49 3.23 11.526 3.23 11.526l15.23-3.802s-3.899-20.047-11.189-21.77c0 0-2.884-.526-4.301.113"/>
        <path fill="#A3A9C4" d="M504.98 470.712c-.279.414-.565.836-.855 1.254l-.004.008c-.395.569-.802 1.142-1.212 1.71-.31-5.64 1.173-13.468 1.173-13.468-.286 2.62.898 10.496.898 10.496"/>
        <path fill="#DBDFF0" d="M508.33 471.888h6.468v-9.88h-6.469zM519.243 440.622s6.512 1.917 11.97-.337l.376 2.668s-7.317 2.78-13.035 1.506l.689-3.837"/>
        <path fill="#EEA886" d="M556.591 519.171s-.557 3.411-1.014 4.05c-.46.639-1.665 3.829-1.785 4.274-.116.449-.82 3.655-.944 4.061-.124.407.797 1.01 1.393.143.372-.542.991-2.62 1.25-3.294.256-.67 1.042-2.8 1.282-2.42.236.376.26 3.202.318 3.926.058.724-.345 2.97-.535 3.898-.19.933-1.312 4.84-.816 5.033.499.198.913.128 1.521-.929 0 0 1.026.534 1.58-.755 0 0 .91.302 1.42-1.378 0 0 .632-.368.864-.972.232-.6 1.556-5.737 1.486-7.816-.07-2.08-.596-3.512-.55-4.983.051-1.467.717-4.626.717-4.626l-6.187 1.788"/>
        <path fill="#DBDFF0" d="M554.795 522.772s3.631.573 8.854.135c0 0-2.958-33.6-2.803-35.502.14-1.753-6.783-32.973-10.589-37.704l-5.784 18.258c.438-.14 6.296 18.622 6.377 20.558.108 2.59 3.945 34.255 3.945 34.255"/>
        <path fill="#434343" d="M514.64 418.427c-.29-3.914.003-7.15.51-9.149.628-2.462 4.612-1.784 4.612-1.784 6.078-1.82 9.744-.984 12.048.004 3.445 2.822 3.709 7.63 3.55 10.278l-.21 1.87-.003.02c-.314 2.632-.631 4.92-.631 4.92l-1.096 1.266s.283-4.386-.39-4.63c-.365-.132-.45-1.018-.454-1.808-.004-.677.058-1.29.058-1.29-7.03-3.236-14.924-.928-15.099-.48-.112.28-.27 1.12-.43 1.867-.096.453-.189.867-.266 1.103-.21.624-.128 4.58-.128 4.58l-1.37-1.792s-.175-.852-.403-2.137a73.464 73.464 0 0 1-.229-1.379s-.062-.557-.07-1.46"/>
        <path fill="#78C2FF" d="M583.967 377.815h-38.17v33.492l5.827-5.827h32.343v-27.665"/>
        <g transform="translate(299.14 310.13)">
            <mask id="f" fill="#fff">
                <use xlink:href="#d"/>
            </mask>
            <path fill="url(#e)" d="M76.226 253.15H41.731a134.546 134.546 0 0 0 8.146-4.367A133.265 133.265 0 0 0 77.94 227.06c32.738-21.134 50.926-56.927 50.926-93.66 0-1.382-.03-2.748-.081-4.13a110.874 110.874 0 0 0-2.366-19.033h7.317v-8.602h-9.516a111.708 111.708 0 0 0-9.903-23.16h19.42V71.86h-23.485a111.077 111.077 0 0 0-20.496-23.155h15.9v-6.617H81.182a109.398 109.398 0 0 0-3.307-2.218 132.488 132.488 0 0 0-18.529-15.645h30.72v-2.543c17.012 11.033 31.763 26.132 42.642 44.866 16.763 28.87 21.479 61.422 15.69 91.825-.247-.008-.46-.012-.626-.012-.202 0-.341.008-.4.023-.212.05-.379.376-.402.678h-20.906v49.389h1.65c-10.887 16.043-25.452 29.946-43.338 40.333-2.691 1.556-5.401 3.016-8.15 4.367m54.5-49.346h-.016v-40.097h16.562a134.7 134.7 0 0 1-3.554 12.497l-4.351-4.1-5.308 5.633 6.72 6.338a133.601 133.601 0 0 1-10.054 19.729M73.01 12.314H38.514A134.167 134.167 0 0 0 .07 1.284 132.765 132.765 0 0 1 17.302.161c19.245 0 38.274 4.173 55.707 12.152" mask="url(#f)"/>
        </g>
        <path fill="#E0C386" d="M389.207 334.353h-30.72a133.103 133.103 0 0 0-20.833-11.91h34.495a133.387 133.387 0 0 1 17.058 9.367v2.543M404.797 358.833h-15.9a111.188 111.188 0 0 0-8.576-6.617h24.476v6.617M432.877 388.605h-19.42c-.177-.31-.355-.62-.537-.93a113.784 113.784 0 0 0-3.527-5.687h23.484v6.617M432.877 420.366h-7.317a110.725 110.725 0 0 0-2.199-8.602h9.516v8.602M426.853 518.579h-1.65V469.19h20.907c-.015.22.046.43.225.5.07.027.414.089.94.17-.062.306-.124.612-.19.917a.8.8 0 0 0-.247.047c-.36.209-.418.863-.004 1.142-.135.623-.279 1.247-.422 1.87H429.85v40.097h.015a133.967 133.967 0 0 1-3.012 4.646"/>
        <path fill="#E0C386" d="M439.92 494.204l-6.721-6.338 5.307-5.633 4.352 4.1a136.311 136.311 0 0 1-2.939 7.87"/>
        <path fill="#D1957A" d="M446.834 471.966c-.414-.279-.356-.933.004-1.142a.8.8 0 0 1 .248-.047c-.082.395-.167.794-.252 1.189m.441-2.106c-.526-.081-.87-.143-.94-.17-.179-.07-.24-.28-.225-.5.023-.302.19-.627.403-.677.058-.016.197-.024.398-.024.167 0 .38.004.628.012-.086.457-.175.906-.264 1.359"/>
        <g transform="translate(231.388 515.706)">
            <mask id="i" fill="#fff">
                <use xlink:href="#g"/>
            </mask>
            <path fill="url(#h)" d="M50.783 39.362A112.027 112.027 0 0 1 .348 27.344V.194c17.624 20.735 41.848 33.786 67.67 37.824a110.91 110.91 0 0 1-17.235 1.344" mask="url(#i)"/>
        </g>
        <path fill="#E0C386" d="M299.221 333.53a111.657 111.657 0 0 0 0-.001"/>
        <path fill="#FF7E55" d="M23.45 691.88L188.96 553.94l-23.453-28.138L0 663.741l23.45 28.138"/>
        <path fill="#E66947" d="M186.134 550.554l8.843-7.368-17.801-21.359-8.843 7.368 17.801 21.359"/>
        <path fill="#494F5C" d="M185.712 499.581c-16.4-28.238-19.001-60.701-9.88-89.567 8.069-25.525 25.304-48.239 50.28-62.742 53.213-30.903 121.406-12.814 152.309 40.4 9.485 16.333 14.355 34.08 15.01 51.727 1.478 39.838-18.53 79.164-55.41 100.582-53.213 30.906-121.406 12.814-152.309-40.4m-18.931 10.995c36.973 63.671 118.565 85.313 182.235 48.336 63.671-36.973 85.31-118.56 48.336-182.232-36.977-63.672-118.565-85.313-182.236-48.338-63.67 36.975-85.312 118.564-48.335 182.234"/>
        <path fill="#EDEDED" d="M175.832 410.014c7.828-24.766 24.286-46.884 48.073-61.425v37.693c-29.191 9.396-48.073 23.732-48.073 23.732m51.17-24.696V346.76c1.564-.89 3.144-1.738 4.735-2.547v39.745c-1.603.437-3.186.89-4.735 1.359"/>
        <path fill="#EDC176" d="M223.905 386.282v-37.693a103.651 103.651 0 0 1 3.097-1.828v38.557c-1.041.313-2.083.638-3.097.964"/>
        <g transform="translate(231.388 334.132)">
            <mask id="l" fill="#fff">
                <use xlink:href="#j"/>
            </mask>
            <path fill="url(#k)" d="M162.042 105.266c-.244-.278-.488-.561-.728-.84h.693l.035.84m-.755-9.438h-7.855a210.654 210.654 0 0 0-9.845-9.594h16.09a110.198 110.198 0 0 1 1.61 9.594m-3.813-18.197h-23.977c-13.09-10.39-26.218-17.913-39.117-23.159h53.186c4.251 7.48 7.542 15.25 9.908 23.16M.348 49.825V10.081v27.124c7.972-9.357 17.635-17.538 28.87-24.065C40.082 6.83 51.568 2.563 63.233.22h9.222a111.744 111.744 0 0 1 41.979 17.864h-79.68V24.7h88.252a110.983 110.983 0 0 1 20.5 23.156H73.662c-11.05-2.598-21.804-3.694-32.095-3.694-14.909 0-28.83 2.3-41.22 5.664" mask="url(#l)"/>
        </g>
        <path fill="#EDD4A2" d="M303.844 334.353h-9.222a109.27 109.27 0 0 1 4.6-.824c1.544.242 3.089.517 4.622.824M354.394 358.833h-88.251v-6.617h79.68a110.387 110.387 0 0 1 8.571 6.617M378.955 388.605h-53.187a140.633 140.633 0 0 0-20.716-6.617h69.842a116.008 116.008 0 0 1 3.035 4.847l.012.016c.034.066.073.124.108.19.008.011.012.015.015.027.09.143.175.29.26.437.03.054.066.112.097.167.178.313.36.623.534.933M391.065 420.366h-16.09a190.526 190.526 0 0 0-10.09-8.602h23.977c.852 2.85 1.587 5.718 2.203 8.602M393.396 438.559h-.693a236.32 236.32 0 0 0-7.883-8.599h7.855c.353 2.865.593 5.734.72 8.599"/>
        <g transform="translate(231.388 332.971)">
            <mask id="o" fill="#fff">
                <use xlink:href="#m"/>
            </mask>
            <path fill="url(#n)" d="M.348 38.367V11.243A111.002 111.002 0 0 1 34.755.347v1.035h28.478c-11.665 2.342-23.151 6.609-34.015 12.92C17.983 20.828 8.32 29.008.348 38.366" mask="url(#o)"/>
        </g>
        <path fill="#D7C398" d="M294.622 334.353h-28.479v-1.035a111.088 111.088 0 0 1 15.811-1.133h.02c5.791.002 11.556.453 17.247 1.344a109.27 109.27 0 0 0-4.6.824"/>
        <path fill="#6E727B" d="M378.42 387.672c-.03-.055-.065-.113-.096-.167.03.054.066.112.097.167m-152.31-40.4c17.608-10.224 36.85-15.086 55.843-15.087-5.261.001-10.55.375-15.811 1.133a111.002 111.002 0 0 0-34.406 10.896 114.138 114.138 0 0 0-5.625 3.058"/>
        <path fill="#EEA987" d="M228.74 488.815s2.556 2.52 3.45 2.392c.89-.124 2.257.52 3.082.562.82.042 3.1-.635 3.918-.283.332.143 2.044 1.82 2.752 2.036.709.221 2.195.488 1.998 1.092-.198.6-1.591.72-1.591.72s.635.24.627.825c-.02 1.134-.662 1.432-.662 1.432s.495.662.368 1.13c-.28 1.035-.91 1.306-.91 1.306s.162.592-.178 1.235c-.442.824-1.379.809-1.379.809s-.31 1.161-.983 1.215c-.674.058-1.2-.263-1.734-.36-.535-.1-4.898-2.423-7.267-5.253-2.366-2.834-5.32-4.739-5.32-4.739l3.83-4.12"/>
        <path fill="#1D3B54" d="M206.986 441.47s.19 3.717 2.304 7.832c2.114 4.116 2.114 9.9 2.416 11.862.302 1.96 5.8 20.868 6.275 21.394.477.527 2.15 1.25 5.529 6.977 3.376 5.726 10.45 11.007 10.45 11.007l-5.858 5.749s-15.692-10.856-18.077-17.043c-2.55-6.608-8.091-25.552-8.091-25.552s-5.741-18.885 5.052-22.226"/>
        <path fill="#3F444F" d="M229.205 515.575l-24.367-14.073 23.476-40.667 24.372 14.07-23.481 40.67"/>
        <path fill="#DB9C7C" d="M208.593 614.321s1.77 4.278 3.16 5.46c1.393 1.18 7.572 9.217 9.701 9.624 2.133.402 6.384.681 6.558 1.587.17.906.275 5.3-5.784 5.443-6.058.144-7.654.027-9.129-1.451-1.475-1.483-7.259-5.742-8.85-5.703l.178 7.576-1.59.035s-1.74-9.357-2.994-11.146c-1.254-1.789-.123-8.486 2.916-11.285 3.043-2.8 5.834-.14 5.834-.14"/>
        <path fill="#BFC2D1" d="M221.454 629.405s-6.72.917-9.578-1.29c-2.857-2.206-6.442-7.688-12.145-7.8 0 0-2.044 2.613 1.3 8.594 0 0 1.855 6.845 1.805 7.983l1.591-.035-.178-7.576s5.71 2.516 9.656 6.895c0 0 11.622 1.847 13.81-1.765 0 0 1.207-1.812.673-3.582-.534-1.765-6.934-1.424-6.934-1.424"/>
        <path fill="#DB9C7C" d="M195.829 503.627s-7.108 8.63 1.8 24.027c0 0 .763 7.867.914 10.82.15 2.955 2.055 13.996 1.033 19.362-1.022 5.362-4.363 13.41-3.112 21.104 1.246 7.692 6.949 29.9 5.853 35.594l6.319-.15s2.257-47.04 2.954-48.7c.7-1.661 3.492-5.258 3.155-12.564-.34-7.301 7.15-37.22 7.116-45.517-.031-8.296-26.032-3.976-26.032-3.976"/>
        <path fill="#EEA886" d="M204.578 614.465s1.669 4.32 3.032 5.532c1.366 1.212 7.352 9.396 9.473 9.849 2.122.457 6.365.836 6.516 1.742.151.91.151 5.304-5.912 5.304-6.059 0-7.65-.15-9.09-1.665-1.44-1.517-7.124-5.911-8.715-5.911v7.576h-1.591s-1.514-9.396-2.73-11.212c-1.211-1.82.078-8.486 3.183-11.215 3.109-2.726 5.834 0 5.834 0"/>
        <path fill="#DBDFF0" d="M217.083 629.846s-6.744.759-9.547-1.514c-2.803-2.272-6.256-7.84-11.955-8.087 0 0-2.106 2.566 1.095 8.622 0 0 1.692 6.89 1.615 8.025h1.591v-7.576s5.649 2.652 9.493 7.123c0 0 11.572 2.122 13.845-1.44 0 0 1.25-1.78.758-3.562-.491-1.78-6.895-1.591-6.895-1.591"/>
        <path fill="#EEA886" d="M194.439 503.5s-7.306 8.455 1.235 24.06c0 0 .573 7.883.654 10.841.081 2.954 1.727 14.042.577 19.38-1.15 5.336-4.68 13.303-3.616 21.023 1.068 7.72 6.24 30.055 5.01 35.722h6.326s3.364-46.973 4.104-48.614c.739-1.645 3.615-5.176 3.449-12.486-.163-7.305 10.1-35.312 10.267-43.604.163-8.293-28.006-6.323-28.006-6.323"/>
        <path fill="#DBDFF0" d="M222.445 512.04s-8.138 46.806-6.334 53.543c0 0-13.74-1.258-24.584-5.474 0 0 5.413-18.32 3.585-28.034-1.827-9.71-5.954-15.025-3.232-24.84 2.717-9.814 30.565 4.805 30.565 4.805"/>
        <path fill="#EEA886" d="M262.655 489.078s2.625.736 3.643-.441c.863-1.003 2.706-1.673 3.271-1.878.755-.279 2.765-1.994 3.125-1.041.356.948-3.175 2.988-3.83 3.561-.654.577 3.199 1.177 3.814 1.843.62.666-.74 6.988-3.333 6.272-2.598-.72-4.898-3.202-5.382-3.237-.48-.034-1.908-.449-1.908-.449l.6-4.63"/>
        <path fill="#EEA886" d="M272.113 490.812s7.805 2.726 8.169 3.345c.371.616.197 1.03-.542.806-.74-.225-7.616-2.42-7.616-2.42s8.692 4.781 9.102 5.223c.244.259-.042 1.08-.453.995-.406-.082-9.291-4.329-9.291-4.329s8.107 4.48 8.343 4.948c.205.414-.248 1.1-.871.81-.627-.291-8.386-4.023-8.386-4.023s5.695 3.631 5.66 4.146c-.023.314-.236 1.038-1.676.054-1.444-.983-5.083-2.946-5.083-2.946l2.644-6.609M216.859 407.741c3.697-.073 11.827 2.014 12.81 11.828 0 0-.367 2.629-1.068 4.68-.697 2.052.987 8.212.496 8.502-.496.287-2.505.616-2.505.616s-2.343 6.609-4.681 6.485c-2.342-.12-11.154-2.203-15.099-10.62-3.941-8.416-4.87-21.189 10.047-21.49"/>
        <path fill="#0E2D3D" d="M229.67 419.569s-6.106 3.914-12.072 4.572c-5.966.654-9.938 6.686-9.938 6.686s-8.73-11.614-1.177-20.592c7.557-8.978 24.8-2.025 23.186 9.334"/>
        <path fill="#E03636" d="M209.387 439.856s6.57 6.237 9.032 9.032c2.466 2.791 10.511 12.892 11.25 15.931.74 3.04-2.19 7.426-4.188 9.524-1.836 1.932-.326 6.407-.573 8.95-.248 2.548-1.56 26.2-2.463 28.747-.906 2.543-22.602 3.817-30.565-4.805 0 0 7.735-15.315 10.197-18.192 2.463-2.873-1.889-21.27-3.368-25.622-1.475-4.351 1.316-23.728 10.678-23.565"/>
        <path fill="#EEA886" d="M208.732 439.852c.573-3.04 0-7.434 0-7.434s11.112 5.134 9.187 6.528c-.499.364-.847 1.06-1.084 1.897-.677 2.37-.487 5.842-.487 5.842l3.685 4.39c3.256 4.468-11.58-9.744-11.3-11.223M215.136 423.797c0-1.15-1.231-2.916-3.163-1.394-1.928 1.517.453 7.061 2.013 6.57 1.56-.492 1.15-3.984 1.15-5.176"/>
        <path fill="#A77860" d="M217.92 438.946c-.5.364-.922 1.316-1.158 2.152-4.31-2.582-6.357-6.713-6.423-6.833 2.354 2.9 7.58 4.68 7.58 4.68"/>
        <path fill="#E03636" d="M201.497 446.956s5.497-4.36 9.334-1.436c3.84 2.923 4.56 5.85 5.726 7.557 1.169 1.711 14.828 17.027 15.513 17.305.685.283 12.044 6.632 18.223 9.768 6.059 3.074 15.099 8.63 15.099 8.63l-2.83 5.64s-30.364-12.59-35.955-16.655c-5.459-3.964-21.343-16.798-21.343-16.798s-9.904-4.716-3.767-14.011"/>
        <path fill="#DB9C7C" d="M242.027 494.998s-3.767-1.925-5.06-1.363c-1.293.557.027 1.328.027 1.328s-1.293-.782-2.005.166c-.709.949.887 1.766.887 1.766s-1.139-.333-1.476.859c-.336 1.192 1.135 1.576 1.135 1.576s-1.84.41-.922 1.692c1.549 2.156 4.62 2.264 4.62 2.264s.739-.046.982-1.215c0 0 1.832.015 1.557-2.044 0 0 1.73-1.146.542-2.436 0 0 1.77-1.328-.287-2.593"/>
        <path fill="#0E2D3D" d="M216.592 424.304s-3.434 14.975 1.327 17.875c0 0-10.112-2.738-14.707-8.568 0 0-5.08-24.259 10.724-26.977 15.625-2.683 2.656 17.67 2.656 17.67"/>
        <path fill="#202338" d="M385.378 625.22s1.734 3.232 2.865 4.518c1.134 1.285 5.47 3.577 5.493 7.39.027 4.131-7.31 2.985-10.178 2.834-2.869-.15-3.086-2.357-4.293-4.7-1.208-2.338-2.428-1.943-2.652-3.829-.229-1.889 1.169-6.213 1.169-6.213h7.596M341.707 624.844s-3.538 3.945-7.127 4.774c-3.59.828-6.098 1.881-6.125 4.146-.027 2.265 10.33 3.76 14.437 1.475 6.128-3.407 6.752-2.38 7.433-4.084.678-1.704-.817-6.26-.774-6.803.054-.666-7.844.492-7.844.492"/>
        <path fill="#81807E" d="M342.102 622.955s-.465 1.85-.395 1.889c.07.039 8.088.995 7.844-.492-.198-1.2-.476-2.508-.476-2.508l-6.973 1.11M377.882 623.973s-.336 1.765-.27 1.804c.061.043 8.13 1.483 8.083.02-.035-1.162-.743-2.52-.743-2.52l-7.07.696"/>
        <path fill="#292C47" d="M349.392 512.26s-2.915 28.32-4.433 38.015c-1.773 11.336-2.373 20.7-2.869 26.57-.62 7.38-.74 43.678-1.177 45.835-.433 2.16 9.66.596 9.66.596s4.967-47.43 6.818-55.289c1.726-7.317 8.13-38.823 9.702-36.822 1.575 1.998 3.526 36.764 4.692 42.536 1.165 5.773 4.711 50.953 4.711 50.953s8.034 1.603 10.17-.209c0 0 .973-38.935.23-49.756-.283-4.124 4.831-49.443-1.727-67.69-3.465-9.64-35.777 5.262-35.777 5.262"/>
        <path fill="#DBD8E3" d="M375.571 505.985s-1.947-2.942-4.007-3.322c-2.06-.375 28.382-15.095 28.3-20.352-.061-4.263-11.048-12.68-11.048-12.68-.233.844-3.303 13.918-3.411 19.532-.116 5.827.348 25.87.348 25.87l-7.805 2.09-24.925.232-5.687-2.322s.624-6.446.852-10.972c.143-2.877.705-8.03.561-13.047 0 0 .09-5.289-.437-7.565-.054-10.055-.662-20.008-.662-20.008-.34-4.557-.573-8.82-.709-12.795 1.1-.581 2.424-1.263 3.48-1.766 3.276-1.56 7.837-3.658 10.764-5.002 1.715-.786 3.391-1.363 3.391-1.363s11.7-1.119 12.648-1.06c.302.019 1.766.526 3.682 1.258 4.15 1.575 12.145 4.781 13.419 5.695 1.87 1.335 14.1 33.69 14.278 35.912.321 4.007-33.032 21.665-33.032 21.665"/>
        <path fill="#1D2033" d="M348.087 512.903s17.12 1.46 32.114 0v4.92s-22.327 2.134-32.865-.936l.751-3.984"/>
        <path fill="#323657" d="M346.67 450.572c.132 4.042.326 8.378.67 13.02 0 0 .325 11.336.976 22.09.224 1.542.337 3.117.209 4.728a186.9 186.9 0 0 1-.666 6.794l-.008.09c-.066.568-.135 1.141-.201 1.718l-.004.027c-1.456 11.979-3.922 25.723-5.207 29.88-.275.872.666 1.673 1.332 2.293l4.684 2.95s1.932-17.77 2.57-23.802c.62-5.823 2.564-13.632 3.42-21.24 1.08-9.651 2.566-19.105 3.371-24.723 2.087-14.623 4.875-21.165 4.875-21.165-1.332.398-16.02 7.34-16.02 7.34M396.373 480.828c2.028 4.448-18.634 12.385-18.17 13.484 1.12 2.637 5.676 8.003 5.676 8.003s27.21-13.458 26.907-16.508c-.224-2.223-12.97-35.808-14.835-37.148-1.08-.774-9.071-3.608-12.993-5.153-.716-.282-3.163-1.2-3.806-1.444-.828.926-6.566 7.252-8.587 31.158-.34 4.027.736 12.56 1.456 19.524.767 7.43 1.618 13.225 2.242 19.44a2072.701 2072.701 0 0 1 2.086 21.978l12.18-5.42c1.97-.988 5.381-3.562 4.642-5.637-2.818-7.89-7.042-22.838-7.046-29.76 0 0 1.99-19.099 3.066-22.827 0 0 4.91 5.331 7.182 10.31"/>
        <path fill="#EEA987" d="M376.144 442.697s.081-4.014 1.63-12.14c.414-2.177-12.629 5.721-12.629 5.721s.043.763.066 1.793c.015.542.023 1.157.02 1.777 0 .22 0 .437-.008.65a20.917 20.917 0 0 1-.086 1.595c-.05.48-.336 1.332-.437 1.564-.538 1.243 7.054 2.184 11.444-.96"/>
        <path fill="#E8734D" d="M368.006 446.906l-2.164 2.903s1.27 1.696 3.52.445l-1.356-3.348"/>
        <path fill="#E8734D" d="M366.423 449.93s-8.2 31.564-6.508 56.136l2.756 4.863 2.583-5.095s.708-43.95 2.954-55.982l-1.785.077"/>
        <path fill="#EEA987" d="M365.691 444.2l2.315 2.706s3.713-.72 4.805-2.66c1.092-1.94-7.12-.047-7.12-.047"/>
        <path fill="#C4C1CC" d="M365.16 441.83s.268 2.064 2.846 5.076l-2.814 3.778-1.522-7.84 1.49-1.014M376.396 439.53s-4.634 5.893-8.39 7.376l1.746 4.32 7.983-9.648-1.34-2.048"/>
        <path fill="#EEA886" d="M299.012 483.197s-8.59 1.003-9.07 1.553c-.485.55-.373 1.018.44.956.806-.058 8.34-.724 8.34-.724s-9.846 2.907-10.345 3.264c-.294.209-.124 1.118.314 1.13.441.008 10.402-2.307 10.402-2.307s-9.187 2.733-9.508 3.163c-.279.375.085 1.188.782 1.033.697-.154 9.404-2.199 9.404-2.199s-6.531 2.42-6.578 2.958c-.027.33.082 1.12 1.746.442 1.661-.678 5.78-1.855 5.78-1.855l-1.707-7.414"/>
        <path fill="#EEA886" d="M309.167 483.604s-2.861.15-3.732-1.297c-.743-1.231-2.56-2.346-3.12-2.691-.748-.457-2.571-2.69-3.098-1.792-.526.894 2.838 3.81 3.43 4.552.597.744-3.527.473-4.278 1.01-.75.543-.344 7.364 2.486 7.225 2.826-.14 5.625-2.16 6.136-2.087.507.074 2.064-.019 2.064-.019l.112-4.901"/>
        <path fill="#323657" d="M307.975 490.348s21.068-2.95 25.745-4.1c2.16-.534 5.01-3.515 7.716-7.027a87.336 87.336 0 0 0 2.598-3.566v-.003c3.322-4.793 5.923-9.389 5.923-9.389s9.81-11.498 1.936-16.624c0 0-3.372-.074-5.223.933-1.904 1.034-5.962 9.505-6.65 11.007-.69 1.498-8.147 15.431-8.646 15.745-.5.314-7.94 1.932-11.258 2.621-4.805 1.003-13.83 2.877-13.83 2.877l1.689 7.526"/>
        <path fill="#3A4066" d="M360.712 519.24h8.007v-6.073h-8.007z"/>
        <path fill="#EFAA88" d="M374.088 506.345s.995-.039 1.421-.267c0 0 .747-.48 1.297-.786.174-.097.33-.178.434-.22.441-.175 1.455-.427 2.396-1.143.937-.712 3.992-3.573 3.992-3.573l-1.975-3.036-.91-3.008s-7.127.709-8.08 1.274a2.163 2.163 0 0 0-.259.174c-.759.558-1.092 1.29-1.455 1.626-.132.124-1.375 1.456-1.305 1.994.097.747.464 1.227.929 1.456 0 0 .252 1.455 1.007 2.106 0 0 .185 1.351 1.355 1.893 0 0 .344 1.351 1.153 1.51"/>
        <path fill="#323657" d="M383.88 502.315s-3.961-3.252-6.106-8.003l12.16-6.659 4.515 9.187-10.57 5.475"/>
        <path fill="#EEA886" d="M358.277 416.286s-2.865 5.312-1.444 6.136c1.173.685-1.374 5.897-1.707 6.748-.333.852 2.125 1.471 2.648 2.017.522.55 2.071 7.294 4.096 7.5 2.025.2 11.15-2.97 13.631-5.556 2.486-2.582 4.526-14.251 2.865-19.172-1.657-4.92-15.029-6.953-20.089 2.327"/>
        <path fill="#16202E" d="M357.708 417.436s-2.927-5.738 2.389-9.993c5.311-4.254 15.106 3.214 16.21 3.5 1.103.283 7.367.716 4.204 11.712-2.714 9.446-3.093 9.845-3.093 9.845s-2.029-5.475-3.179-6.307c-1.792-1.3-5.726-.991-5.726-.991s1.874-4.975-1.053-5.68c-2.93-.704-6.79-3.186-9.752-2.086"/>
        <path fill="#EEA886" d="M371.634 422.353c.26-.682 1.095-3.613 3.612-1.894 2.516 1.723-1.568 7.252-2.01 7.325-.437.07-3.774.314-1.602-5.431"/>
        <path fill="#A77860" d="M365.23 439.848c0 .22 0 .437-.007.65 7.46-2.505 8.904-6.272 8.904-6.272-2.327 1.646-8.916 3.845-8.916 3.845.015.542.023 1.157.02 1.777"/>
    </g>
</svg>
