<svg xmlns="http://www.w3.org/2000/svg" xmlns:xlink="http://www.w3.org/1999/xlink" width="77" height="62" viewBox="0 0 77 62">
    <defs>
        <path id="prefix__a" d="M0.107 0.169L18.078 0.169 18.078 22.5 0.107 22.5z"/>
    </defs>
    <g fill="none" fill-rule="evenodd">
        <path fill="#E86B05" d="M51.935 0H25.382a4.386 4.386 0 00-4.385 4.386v26.553a4.386 4.386 0 004.385 4.385h26.553a4.386 4.386 0 004.386-4.385V4.386A4.386 4.386 0 0051.935 0"/>
        <path fill="#FEFEFE" d="M8.678 46.568c2.714 0 4.441-.822 4.441-3.66 0-2.796-1.48-3.578-4.071-3.578H7.074v7.238h1.604zm-1.604 14.56H0v-27.35h10.035c6.457 0 10.363 3.003 10.363 8.678 0 6.374-4.647 9.582-11.227 9.582H7.074v9.09zM29.49 61.127h-6.868V44.102l-.535-4.03h5.593l.535 2.92c1.11-2.591 3.167-3.537 4.935-3.537 1.028 0 2.345.246 3.413.782l-1.11 5.716c-.863-.453-1.891-.7-2.961-.7-1.768 0-2.961 1.111-3.002 3.003v12.872z"/>
        <g transform="translate(36.5 39.285)">
            <mask id="prefix__b" fill="#fff">
                <use xlink:href="#prefix__a"/>
            </mask>
            <path fill="#FEFEFE" d="M10.306 4.98c-2.056 0-3.414 2.015-3.537 4.853 2.22-.123 5.14-1.152 5.14-3.166 0-1.029-.616-1.687-1.604-1.687m7.568 1.604c0 5.963-6.745 7.156-10.776 7.403.165 1.85 1.564 3.372 4.072 3.372 1.974 0 3.784-.864 5.1-1.727l1.81 4.524c-.206.206-3.291 2.344-7.897 2.344C2.944 22.5.107 18.14.107 11.89.107 5.926 3.643.168 10.676.168c4.318 0 7.197 2.097 7.197 6.415" mask="url(#prefix__b)"/>
        </g>
        <path fill="#FEFEFE" d="M69.006 61.54h-5.698l-7.72-21.516h4.438c1.514 0 2.857.976 3.323 2.417l2.829 8.741 3.57-11.158h6.978l-7.72 21.517z"/>
        <path fill="#D66106" d="M52.393 35.324H38.466V13.926C38.466 6.236 44.702 0 52.393 0a3.927 3.927 0 013.927 3.928v27.469a3.928 3.928 0 01-3.927 3.927"/>
        <path fill="#D66106" d="M43.734 29.168l-3.472 3.306a1.651 1.651 0 01-2.305-.041l-3.176-3.258a1.938 1.938 0 01-.543-1.595l2.799-15.621c.096-.616.645-1.072 1.29-1.072h2.112c.654 0 1.206.467 1.293 1.093l2.602 15.574a1.942 1.942 0 01-.6 1.614"/>
        <path fill="#E6E7E6" d="M43.11 28.812l-3.473 3.307a1.652 1.652 0 01-2.305-.042l-3.177-3.258a1.939 1.939 0 01-.543-1.595l2.8-15.621c.096-.616.645-1.072 1.29-1.072h2.111c.654 0 1.207.467 1.294 1.093l2.602 15.574a1.941 1.941 0 01-.6 1.614"/>
        <path fill="#E6E7E6" d="M41.124 11.711h-1.872l.644-1.402a.085.085 0 01.132-.03l.6.5c.089.075.16.17.207.277l.29.655z"/>
        <path fill="#FEFEFE" d="M42.484 28.278l-3.473 3.307a1.651 1.651 0 01-2.304-.041l-3.177-3.259a1.937 1.937 0 01-.543-1.595l2.8-15.62c.096-.617.644-1.073 1.29-1.073h2.111c.654 0 1.207.468 1.293 1.093l2.603 15.574a1.941 1.941 0 01-.6 1.614"/>
        <path fill="#D66106" d="M42.184 4.3h-5.829c-.6 0-.998.774-.742 1.448l1.032 2.716c.273.572.77.923 1.307.923h2.678c.544 0 1.047-.362 1.317-.947l.985-2.708c.244-.672-.153-1.431-.748-1.431"/>
        <path fill="#E6E7E6" d="M41.559 3.945h-5.83c-.6 0-.997.774-.742 1.447l1.033 2.716c.273.572.77.923 1.306.923h2.678c.545 0 1.048-.361 1.318-.947l.985-2.708c.244-.671-.153-1.431-.748-1.431"/>
        <path fill="#E6E7E6" d="M35.87 8.158L36.559 8.747 36.822 7.93zM41.682 4.236h-.788l.208-.74a.059.059 0 01.09-.032l.27.139a.546.546 0 01.046.028c.24.16.667.605.766.834l-.592-.229z"/>
        <path fill="#FEFEFE" d="M40.933 3.412h-5.828c-.602 0-.999.774-.743 1.447l1.033 2.716c.273.572.77.923 1.306.923h2.678c.544 0 1.047-.362 1.317-.947l.985-2.708c.244-.671-.153-1.431-.748-1.431"/>
    </g>
</svg>
