<svg width="1380" height="837" fill="none" xmlns="http://www.w3.org/2000/svg"><path d="M0 828.808v-387.17h241.311v73.734H87.408v77.756h131.649v72.929H87.408v89.017h160.874v73.734H0zM298.687 828.808v-387.17H431.14a331.776 331.776 0 0 1 56.037 4.558 134.053 134.053 0 0 1 45.045 15.552 84.987 84.987 0 0 1 30.834 29.761 87.946 87.946 0 0 1 10.993 46.386 96.523 96.523 0 0 1-3.485 26.812 93.84 93.84 0 0 1-10.189 24.399 87.668 87.668 0 0 1-15.551 20.109 53.62 53.62 0 0 1-21.182 13.139v2.413a102.408 102.408 0 0 1 26.813 10.993 84.193 84.193 0 0 1 36.733 45.044 100.284 100.284 0 0 1 5.362 34.856 104.307 104.307 0 0 1-11.529 50.944 101.62 101.62 0 0 1-32.175 35.392 145.851 145.851 0 0 1-47.726 20.914 241.303 241.303 0 0 1-58.719 6.703l-143.714-.805zm87.14-232.194h41.023a71.052 71.052 0 0 0 46.653-12.334 41.821 41.821 0 0 0 14.479-33.247 35.388 35.388 0 0 0-14.747-32.175 85.788 85.788 0 0 0-44.24-9.116h-43.168v86.872zm0 164.627h49.335c47.994 0 71.857-17.428 71.857-52.284a39.41 39.41 0 0 0-17.697-36.464 103.49 103.49 0 0 0-53.624-10.993h-49.871v99.741zM792.841 836.048a189.31 189.31 0 0 1-69.712-12.87 163.563 163.563 0 0 1-57.111-37.806 172.923 172.923 0 0 1-38.877-61.132 234.864 234.864 0 0 1-14.479-85.799 232.193 232.193 0 0 1 15.015-85.8 193.838 193.838 0 0 1 39.682-63.813 165.428 165.428 0 0 1 58.183-39.682 183.132 183.132 0 0 1 70.248-13.675 144.267 144.267 0 0 1 67.031 15.015 189.323 189.323 0 0 1 48.798 34.588l-46.385 55.77a147.97 147.97 0 0 0-31.102-22.254 80.427 80.427 0 0 0-36.733-8.849 83.395 83.395 0 0 0-37.001 8.58 86.07 86.07 0 0 0-30.298 24.668 117.145 117.145 0 0 0-20.109 39.146 167.572 167.572 0 0 0-7.508 52.284 149.884 149.884 0 0 0 25.472 93.039 82.58 82.58 0 0 0 68.371 32.711 84.73 84.73 0 0 0 42.364-9.116 125.21 125.21 0 0 0 32.979-26.813l46.385 53.625a157.114 157.114 0 0 1-125.213 58.183z" fill="#08562C"/><path d="M1108.16 590.178c0-192.512-123.071-318.262-300.569-383.416C840.57 129.006 906.26 62.243 994.741.307c72.129 100.546 182.319 409.692 113.419 589.871z" fill="#158342"/><path d="M1379.77 194.428c-26.01 100.815-158.2 315.314-271.61 395.751 64.08-174.281-37.81-489.326-113.42-589.872 176.69-5.362 309.95 59.523 385.03 194.121z" fill="#FFD10F"/></svg>