<svg width="1380" height="837" viewBox="0 0 1380 837" fill="none" xmlns="http://www.w3.org/2000/svg">
<path d="M0 828.808V441.638H241.311V515.372H87.4082V593.128H219.057V666.057H87.4082V755.074H248.282V828.808H0Z" fill="#08562C"/>
<path d="M298.687 828.808V441.638H431.14C449.914 441.569 468.661 443.094 487.177 446.196C503.001 448.649 518.257 453.915 532.222 461.748C544.874 468.872 555.489 479.118 563.056 491.509C570.921 505.664 574.725 521.716 574.049 537.895C574.151 546.951 572.978 555.977 570.564 564.707C568.336 573.28 564.906 581.495 560.375 589.106C556.196 596.529 550.957 603.303 544.824 609.215C538.893 615.198 531.637 619.699 523.642 622.354V624.767C533.056 627.142 542.083 630.843 550.455 635.76C567.658 645.938 580.679 661.905 587.188 680.804C591.02 692.015 592.836 703.816 592.55 715.66C593.09 733.345 589.122 750.875 581.021 766.604C573.265 780.793 562.234 792.927 548.846 801.996C534.321 811.776 518.155 818.86 501.12 822.91C481.895 827.542 462.175 829.793 442.401 829.613L298.687 828.808ZM385.827 596.614H426.85C443.364 598.071 459.867 593.708 473.503 584.28C478.257 580.18 482.027 575.062 484.533 569.307C487.039 563.552 488.218 557.306 487.982 551.033C488.564 544.847 487.508 538.617 484.919 532.97C482.331 527.322 478.301 522.455 473.235 518.858C459.567 511.922 444.291 508.774 428.995 509.742H385.827V596.614ZM385.827 761.241H435.162C483.156 761.241 507.019 743.813 507.019 708.957C507.648 701.846 506.334 694.698 503.217 688.276C500.1 681.854 495.298 676.398 489.322 672.493C472.758 664.082 454.235 660.285 435.698 661.5H385.827V761.241Z" fill="#08562C"/>
<path d="M792.841 836.048C769 836.186 745.348 831.819 723.129 823.178C701.637 814.748 682.174 801.863 666.018 785.372C648.888 767.968 635.638 747.134 627.141 724.24C617.013 696.792 612.102 667.693 612.662 638.441C612.21 609.15 617.304 580.038 627.677 552.641C636.615 528.985 650.096 507.307 667.359 488.828C683.68 471.578 703.524 458.044 725.542 449.146C747.831 440.012 771.703 435.365 795.79 435.471C819.017 435.006 842.012 440.157 862.821 450.486C880.817 459.357 897.289 471.032 911.619 485.074L865.234 540.844C855.873 532.112 845.418 524.631 834.132 518.59C822.764 512.765 810.172 509.732 797.399 509.741C784.569 509.717 771.907 512.653 760.398 518.321C748.541 524.113 738.175 532.552 730.1 542.989C720.984 554.65 714.161 567.933 709.991 582.135C704.74 599.056 702.206 616.704 702.483 634.419C700.489 667.391 709.444 700.099 727.955 727.458C735.912 737.973 746.271 746.429 758.166 752.12C770.061 757.811 783.146 760.571 796.326 760.169C810.999 760.854 825.598 757.712 838.69 751.053C851.131 744.06 862.284 734.992 871.669 724.24L918.054 777.865C902.992 796.457 883.881 811.364 862.181 821.447C840.481 831.531 816.764 836.524 792.841 836.048Z" fill="#08562C"/>
<path d="M1108.16 590.178C1108.16 397.666 985.089 271.916 807.591 206.762C840.57 129.006 906.26 62.2433 994.741 0.306763C1066.87 100.853 1177.06 409.999 1108.16 590.178Z" fill="#158342"/>
<path d="M1379.77 194.428C1353.76 295.243 1221.57 509.742 1108.16 590.179C1172.24 415.898 1070.35 100.853 994.74 0.307041C1171.43 -5.05543 1304.69 59.8304 1379.77 194.428Z" fill="#FFD10F"/>
</svg>
