<svg xmlns="http://www.w3.org/2000/svg" height="53.51" width="300" viewBox="0 0 300 53.514"><path d="M11.982 43.571V30.143h24.335v-9.277H11.982V9.219h41.326V.001H0v53.512h53.605v-9.942zM54.569 0l27.526 26.757L109.62 0z"/><path fill="#fd0b00" d="M54.569 53.513h55.051L82.095 26.756z"/><path d="M171.5 0h-60.69v10.036h24.33v43.478h12.17V10.036h24.19zM236.2 53.513l-24.182-20.385h9.64a8.9 8.9 0 0 0 8.901-8.903V8.903A8.9 8.9 0 0 0 221.658 0h-47.487v53.513h11.576V33.128h11.548l20.947 20.385h17.935zm-50.46-29.084V9.144h29.676a3.563 3.563 0 0 1 3.563 3.562v8.161a3.563 3.563 0 0 1-3.563 3.562h-29.672z"/><path d="M286.05 53.513H300L269.73.001h-11.872l-27.29 49.579-2.745 3.933h12.91l5.988-11.427h33.537l5.79 11.427zM252 31.996l11.199-21.367h1.073l10.854 21.367h-23.123z"/></svg>