<svg xmlns="http://www.w3.org/2000/svg" width="502.88" height="55.617"><g fill="#231f20"><path d="M36.438 30.389c0 16.868 5.887 24.665 18.379 24.665 10.9 0 19.334-7.002 19.334-24.108 0-16.947-5.968-24.585-18.46-24.585-10.9 0-19.254 6.842-19.254 24.028zm26.256.636c0 18.618-3.82 21.244-7.718 21.244-3.82 0-7.16-3.023-7.16-22.039 0-18.538 3.818-21.085 7.637-21.085 3.899 0 7.24 2.865 7.24 21.88zm13.685 23.153h28.166V39.936h-2.228l-3.899 11.06h-7.16V10.337l4.137-.955V7.235H76.697v2.148l3.819.955v40.737l-4.137.955v2.148zm31.905-46.943v2.148l3.819 1.035v40.657l-3.82.954v2.149h17.983V52.03l-3.422-.955v-18.46h10.343v18.46l-3.182.954v2.149h17.743V52.03l-3.82-.955V10.338l3.501-.955V7.235h-17.425v2.148l3.183.955v19.095h-10.343V10.338l3.421-.955V7.235h-17.982zm42.487 46.943h12.014V52.03l-4.854-.955 2.626-11.219h10.025l3.74 11.22-4.218.954v2.148h18.936V52.03l-3.5-.955-13.287-43.919h-6.684l-11.378 43.92-3.421.954v2.148zm10.662-17.584 3.66-14.799 4.535 14.8h-8.195zm74.393-5.171c0-18.46-7.002-24.188-18.618-24.188h-18.141v2.148l3.74.954v40.737l-3.74.955v2.148h18.936c9.309 0 17.822-6.126 17.822-22.755zm-18.777 19.573h-3.024V10.418h2.705c5.331 0 8.275 3.103 8.275 20.528 0 17.106-2.546 20.05-7.956 20.05zM.159.71v2.466l4.853 1.034v46.466l-5.013 1.035v2.466h23.233v-2.466l-6.365-1.035V29.195h6.843l1.67 7.082h2.547V19.012H25.38l-1.671 6.524h-6.843V4.292h8.752l4.456 12.173h2.705V.71H.16z"/><path d="M258.858 50.999h-8.673V32.3h5.808l1.433 6.285h2.227V23.39h-2.227l-1.433 5.729h-5.808V10.58h7.24l3.82 10.343h2.466V7.397h-28.564v2.069l4.297.954v40.657l-4.376.955v2.148h30.075V40.495h-2.387l-3.899 10.502zM298.64-.002c-9.548 0-17.106 6.126-17.186 15.754-.08 15.833 20.13 15.992 20.13 28.643 0 3.42-2.626 6.524-6.763 6.524-2.785 0-5.809-.398-8.036-1.75l-2.387-10.343h-2.785v14.48c2.785 1.114 6.922 1.751 11.616 1.751 10.9 0 18.22-7.956 18.22-17.584 0-17.186-19.812-16.072-19.812-27.768 0-3.183 2.466-5.65 7.002-5.65 1.989 0 3.341.24 5.33.637l2.626 10.662h2.546V.874c-3.262-.637-6.842-.876-10.502-.876zM343.753 28.8h-1.99V4.453h2.149c4.058 0 5.57 2.227 5.57 12.094 0 9.866-2.07 12.253-5.73 12.253zm2.944 3.66c10.662 0 15.276-6.286 15.276-15.833 0-12.332-5.888-15.833-14.64-15.833h-22.278V3.26l4.853 1.034V50.68l-5.013 1.035v2.466h22.915v-2.466l-6.046-1.035V32.46h4.933zm22.994 4.217 3.66-14.878 4.535 14.878h-8.195zM358.55 54.18h12.493v-2.149l-4.774-.954 2.625-11.22h9.946l3.66 11.22-4.217.954v2.149h19.414v-2.149l-3.978-.954-13.208-43.84h-6.684l-11.457 43.84-3.819.954v2.149zm37.157-46.784v2.068l3.819.955v30.234c0 10.821 3.5 14.958 13.924 14.958 9.388.08 13.844-3.82 13.844-12.889V10.42l3.58-.955V7.397h-10.821v2.068l3.978.955v31.667c0 6.604-1.83 10.184-7.956 10.184-4.376 0-5.808-2.785-5.808-8.752v-33.1l4.137-.954V7.396h-18.698zm38.668 46.784h27.688V39.939h-2.228l-3.82 11.059h-6.842V10.42l4.137-.955V7.396h-18.698v2.069l3.899.955v40.657l-4.137.954v2.149zm30.95-23.79c0 16.868 5.887 24.665 18.379 24.665 10.82 0 19.175-7.002 19.175-24.108 0-16.868-5.968-24.506-18.46-24.506-10.82 0-19.094 6.842-19.094 23.949zm26.177.716c0 18.538-3.9 21.164-7.718 21.164s-7.081-3.024-7.081-21.96c0-18.538 3.819-21.085 7.638-21.085s7.16 2.864 7.16 21.88zm-176.23 14.322c2.546 0 4.614 2.307 4.614 5.092s-2.228 5.092-4.774 5.092c-2.387 0-4.614-2.308-4.614-5.092s2.387-5.092 4.773-5.092z"/></g></svg>