<svg width="500" height="95" xmlns="http://www.w3.org/2000/svg"><g fill="none" fill-rule="evenodd"><path d="M0 0h500v95H0z"/><path d="M126.899 83.942c11.98 0 12.715-8.53 12.715-26.357 0-17.444-.84-26.07-12.926-26.07h-6.832v52.427h7.043zm-17.972-61.915h17.866c8.197 0 13.663 2.013 17.13 5.464 6.306 6.229 6.831 17.06 6.831 29.997 0 13.802-.525 24.92-7.461 30.766-3.573 3.067-8.828 4.793-16.71 4.793h-17.656v-71.02zM158.667 44.573h10.174v48.474h-10.174zM177.885 44.755l8.754-.436.843 4.628c1.688-3.319 5.38-5.502 13.605-5.502 4.747 0 7.805 1.223 9.808 3.144 2.532 2.62 3.164 6.725 3.164 11.964v34.494h-10.65v-31.35c0-7.772-1.372-9.78-6.435-9.78-7.487 0-8.542 4.54-8.542 12.66v28.47h-10.547V44.755zM223.103 23.154h10.547v25.43c1.897-2.689 5.484-4.769 12.656-4.769 4.746 0 7.804 1.214 9.809 3.12 2.53 2.6 3.162 6.675 3.162 11.875v34.237h-10.651V61.93c0-7.715-1.37-9.708-6.434-9.708-7.487 0-8.542 4.507-8.542 12.567v28.257h-10.547V23.154zM276.51 61.137l14.74.065c-.003-2.894-.011-9.312-6.869-9.35-6.397-.036-7.883 5.163-7.871 9.285m-4.166 29.724c-5.403-4.132-6.24-11.985-6.282-22.126-.042-9.988.687-16.892 5.434-21.12 2.804-2.643 7.232-4.211 13.603-4.169 5.713.04 9.529 1.464 11.862 3.925 4.444 4.686 4.139 12.297 4.139 21.355l-24.913-.084c-.441 15.509 2.763 17.553 10.174 17.559 4.718.006 8.235-1.378 10.804-2.338l3.693 7.298c-4.703 2.01-8.7 3.013-15.877 3.013-5.15 0-9.832-1.12-12.637-3.313M309.017 44.257h10.174v48.79h-10.174v-48.79zm0-21.103h10.174v13.779h-10.174v-13.78zM328.235 45.377l8.936-.432.96 5.599c1.857-3.965 6.578-6.628 13.678-5.83l.165 8.396c-9.494 0-12.93 3.474-12.93 12.44v27.497h-10.81v-47.67zM381 69.074c0-10.48-.414-17.085-8.061-17.085-7.75 0-8.267 6.605-8.267 17.085 0 10.569.517 17.086 8.267 17.086 7.647 0 8.06-6.517 8.06-17.086m-20.77 21.402c-5.375-4.405-5.994-12.33-5.994-21.666 0-9.072.517-16.821 5.477-21.314 2.79-2.466 6.923-4.05 13.227-4.05 6.2 0 10.437 1.584 13.226 4.05 4.858 4.493 5.375 12.33 5.375 21.314 0 9.247-.517 17.173-5.786 21.489-2.79 2.378-6.82 3.875-12.815 3.875-5.994 0-10.024-1.408-12.71-3.698" fill="#D00018"/><path d="M212.929 27.884v-5.849h-4.372l.813-1.136h-3.012l-.812 1.136h-5.254v3.242h1.704v9.057h-1.704v3.242h12.637v-5.782h-3.914v2.54h-3.106v-2.707h2.34v-3.643h-2.34v-2.707h3.106v2.607h3.914zm-19.02 5.906a4.009 4.009 0 1 1 0-8.017 4.01 4.01 0 1 1 0 8.017zm0-11.868a7.83 7.83 0 0 0-4.051 1.123v-1.01H174.08v.513s-1.187-.73-2.83-.73c-3.066 0-5.243 2.222-5.243 4.62 0 2.95 2.032 3.925 4.463 4.737 1.004.333 1.825.568 2.325.797.628.287.888.775.888 1.24 0 .764-.705 1.372-1.557 1.372-1.773 0-2.26-2.09-2.26-2.09l-3.926.002v1.847l-.001-.007-1.655-.002v-9.057h1.873v-3.242h-7.49v3.242h1.704v9.057h-1.705v3.242H166.394v-.002h3.473v-.546s1.244.78 3.109.78c2.804 0 5.304-1.968 5.304-4.65 0-2.983-2.614-4.142-4.405-4.668-.887-.26-1.872-.564-2.405-.786-.694-.286-.999-.676-.999-1.24 0-.896.823-1.313 1.49-1.313 1.91 0 2.257 2.25 2.257 2.25h3.86v-2.192l.002.068h2.03v9.057h-1.786v3.242h7.49v-3.242h-1.789v-9.057h2.022v4.505c0 4.34 3.52 7.859 7.862 7.859a7.86 7.86 0 1 0 0-15.72z" fill="#333"/></g></svg>