<svg xmlns="http://www.w3.org/2000/svg" viewBox="0 0 268.1 44.9" style="enable-background:new 0 0 268.1 44.9" xml:space="preserve"><path d="M103.9 21.9c0 5.9-2.2 11-6.5 15.3-4.3 4.3-9.4 6.4-15.4 6.4s-11.1-2.2-15.3-6.4c-4.3-4.3-6.4-9.4-6.4-15.4s2.2-11.1 6.4-15.4c2.2-2.1 4.5-3.7 7.1-4.8C76.4.5 79.2 0 82.2 0s5.9.6 8.7 1.9c2.8 1.2 5.2 2.9 7.2 5.2l-7.8 7.1c-.9-1.1-2.2-1.9-3.8-2.6l-2.1-.7c-.7-.2-1.5-.2-2.2-.2-3.2 0-5.8 1.1-7.9 3.2-2.2 2.2-3.2 4.8-3.2 7.9 0 3 1.1 5.7 3.2 7.9 2.2 2.2 4.8 3.3 7.9 3.3 2.1 0 4.1-.5 5.9-1.6 1.8-1.1 3.2-2.7 4.2-4.9h-9.6v-8.7l21 .1.2 2.7v1.3zm69-15c-4.4-4.4-9.6-6.6-15.7-6.6s-11.4 2.2-15.7 6.5c-4.4 4.3-6.5 9.6-6.6 15.7 0 6.1 2.1 11.3 6.5 15.7 4.3 4.4 9.6 6.6 15.7 6.6s11.4-2.2 15.7-6.5c4.4-4.4 6.6-9.6 6.6-15.7.1-6-2.1-11.3-6.5-15.7m-7.8 23.8c-2.2 2.2-4.9 3.3-8 3.3-3.2 0-5.9-1.1-8.1-3.3-2.2-2.2-3.3-4.9-3.3-8.1 0-3.2 1.1-5.8 3.4-8.1 2.2-2.2 4.9-3.3 8-3.3 3.1 0 5.7 1.2 8 3.4 2.3 2.3 3.4 4.9 3.4 8 .1 3.2-1.1 5.9-3.4 8.1m103-8c0 6.1-2.2 11.3-6.5 15.7-4.3 4.4-9.4 6.5-15.4 6.5s-11.1-2.2-15.3-6.6c-4.2-4.4-6.3-9.6-6.3-15.7 0-6.2 2.1-11.4 6.4-15.8 4.3-4.4 9.4-6.5 15.4-6.5 5.9 0 11 2.2 15.3 6.6 4.3 4.4 6.5 9.7 6.4 15.8m-10.6 0c0-3.1-1.1-5.7-3.3-8-2.2-2.3-4.8-3.4-7.8-3.4s-5.6 1.1-7.8 3.3c-2.2 2.2-3.3 4.9-3.3 8.1 0 3.1 1.1 5.8 3.2 8.1 2.1 2.2 4.8 3.3 7.9 3.3 3 0 5.6-1.1 7.8-3.3 2.2-2.3 3.3-5 3.3-8.1m-214 0c0 6.1-2.2 11.3-6.5 15.7-4.2 4.4-9.4 6.5-15.4 6.5s-11.1-2.2-15.3-6.6C2.1 33.9 0 28.7 0 22.6c0-6.2 2.2-11.4 6.4-15.8C10.7 2.4 15.8.3 21.8.3s11.1 2.2 15.3 6.6c4.3 4.4 6.4 9.7 6.4 15.8m-10.7 0c0-3.1-1.1-5.7-3.3-8-2.2-2.3-4.8-3.4-7.8-3.4s-5.6 1.1-7.8 3.3c-2.2 2.2-3.3 4.9-3.3 8.1 0 3.1 1.1 5.8 3.2 8.1 2.1 2.2 4.8 3.3 7.9 3.3 3 0 5.6-1.1 7.8-3.3 2.2-2.3 3.3-5 3.3-8.1m170.4 12.4h-7.5V25h7.5c2.4 0 6.4.6 6.4 5 0 3.9-2.2 5.1-6.4 5.1zm-7.4-25.2h5.4c1.8 0 5.8-.1 5.8 3.1 0 3.4-4.2 3-5.7 3h-5.5V9.9zm17.3 10c3.7-1.9 4.7-4.6 4.7-7.8 0-2.5-.5-5.2-2.6-7.1-3.3-3.4-7.5-3.6-15.3-3.6h-14.7v42.1h15.2c7.7 0 11.5-.3 15.7-3.5 2.8-2.1 4.2-6.3 4.2-9.7.1-1.7.2-7.9-7.2-10.4zM139 43.5l-6.5-8.9H120V1.4h-10.5v42.1H139z"/></svg>