<svg width="2443" height="839" viewBox="0 0 2443 839" fill="none" xmlns="http://www.w3.org/2000/svg">
<path fill-rule="evenodd" clip-rule="evenodd" d="M1779.89 0.891113L1762.24 24.7439H1770.35L1786.57 11.3863L1802.32 25.698H1810.43L1792.77 0.891113H1779.89ZM1522.28 29.5144C1498.43 29.5144 1482.69 50.0278 1482.69 83.4217V88.1922C1482.69 121.586 1498.43 140.668 1522.76 140.668C1544.71 140.668 1556.15 127.788 1560.93 107.274L1544.71 103.458C1541.84 119.201 1535.16 128.265 1523.71 128.265C1507.97 128.265 1500.82 112.522 1500.82 90.1005V81.9905C1500.82 59.0919 1507.97 43.8261 1523.24 43.8261C1535.16 43.8261 1541.37 50.9819 1544.23 66.7247L1560.45 61.9542C1555.68 42.872 1546.14 29.9915 1523.71 29.9915L1522.28 29.5144ZM1606.25 29.5144C1581.44 29.5144 1566.17 50.0278 1566.17 83.4217V88.1922C1566.17 121.586 1581.44 140.668 1606.25 140.668C1631.05 140.668 1646.32 121.586 1646.32 88.1922V83.4217C1646.32 50.0278 1631.05 29.9915 1606.25 29.9915V29.5144ZM1786.57 29.5144C1761.77 29.5144 1746.5 50.0278 1746.5 83.4217V88.1922C1746.5 121.586 1761.77 140.668 1786.57 140.668C1811.38 140.668 1827.12 121.586 1827.12 88.1922V83.4217C1827.12 50.0278 1810.9 29.9915 1786.1 29.9915L1786.57 29.5144ZM2051.82 29.5144C2026.05 29.5144 2011.27 50.0278 2011.27 83.4217V88.1922C2011.27 121.586 2026.53 140.668 2050.86 140.668C2071.85 140.668 2084.25 127.788 2088.07 107.274L2072.33 103.458C2068.99 119.201 2062.79 128.265 2051.34 128.265C2035.12 128.265 2028.44 112.522 2028.44 90.1005V81.9905C2028.44 59.0919 2035.12 43.8261 2050.86 43.8261C2061.36 43.8261 2067.56 50.9819 2069.94 66.7247L2086.64 61.9542C2082.82 42.872 2072.33 29.9915 2050.38 29.9915L2051.82 29.5144ZM2134.35 29.5144C2109.54 29.5144 2094.27 50.0278 2094.27 83.4217V88.1922C2094.27 121.586 2108.58 140.668 2133.87 140.668C2159.15 140.668 2174.42 121.586 2174.42 88.1922V83.4217C2174.42 50.0278 2159.15 29.9915 2133.87 29.9915L2134.35 29.5144ZM1412.56 32.8538V139.237H1480.78V126.357H1429.74V90.1005H1469.33V77.22H1429.26V45.2573H1479.35V32.3768H1412.56V32.8538ZM1658.72 32.8538V139.237H1674.46V58.1377L1716.45 139.237H1733.62V32.8538H1718.35V110.614H1716.92L1676.85 32.3768H1657.77L1658.72 32.8538ZM1839.05 32.8538V139.237H1854.31V50.5049H1855.27L1882.94 140.191H1900.59L1928.26 50.9819H1930.17V139.237H1946.39V32.8538H1918.24L1892.96 118.724H1892L1865.76 32.8538H1839.05ZM1958.31 32.8538V39.0555H1972.62V132.081H1958.31V139.237H2005.06V132.081H1989.8V39.0555H2005.06V32.8538H1957.36H1958.31ZM1605.77 43.8261C1621.03 43.8261 1628.67 58.1377 1628.67 81.9905V90.1005C1628.67 112.999 1621.03 128.265 1605.77 128.265C1590.5 128.265 1583.35 112.999 1583.35 90.1005V81.9905C1583.35 58.1377 1590.03 43.8261 1605.29 43.8261H1605.77ZM1786.1 43.8261C1801.36 43.8261 1808.99 58.1377 1808.99 81.9905V90.1005C1808.99 112.999 1801.36 128.265 1786.1 128.265C1770.83 128.265 1763.67 112.999 1763.67 90.1005V81.9905C1763.67 58.1377 1770.83 43.8261 1786.1 43.8261ZM2134.35 43.8261C2148.66 43.8261 2156.77 58.1377 2156.77 81.9905V90.1005C2156.77 112.999 2149.61 128.265 2134.35 128.265C2120.03 128.265 2111.92 112.999 2111.92 90.1005V81.9905C2111.92 58.1377 2119.56 43.8261 2134.35 43.8261Z" fill="#231F20"/>
<path fill-rule="evenodd" clip-rule="evenodd" d="M1326.69 31.8999C1313.33 31.8999 1283.76 34.7622 1259.9 34.7622H1110.58C1109.15 34.7622 1107.25 36.1934 1107.25 38.1016V53.3674C1107.25 55.2756 1109.15 57.1838 1110.58 57.1838H1194.07C1195.5 57.1838 1196.93 58.1379 1196.93 60.0462V803.298C1196.93 805.206 1195.5 806.161 1194.07 806.161H1134.44C1089.59 806.161 1066.22 792.803 1066.22 732.694V478.901C1066.22 336.738 1011.36 273.767 833.416 273.767C738.959 274.244 634.961 310.977 634.961 401.618C634.961 432.149 658.813 462.204 704.134 462.204C749.454 462.204 770.921 437.397 770.921 401.141C770.921 382.058 768.059 361.545 768.059 338.169C768.059 306.207 790.958 296.189 827.691 296.189C899.249 296.189 930.258 329.582 930.258 411.636V463.635C930.258 476.992 927.873 482.717 897.818 490.827C873.011 497.506 829.599 508.955 794.297 515.634C648.318 542.349 600.613 601.504 600.613 676.402C600.613 784.693 686.483 837.169 788.095 837.169C854.883 837.169 907.359 803.775 929.304 759.886H932.166C936.937 790.418 959.358 828.582 1044.27 828.582H1418.29C1419.72 828.582 1421.15 827.151 1421.15 825.243V808.069C1421.15 806.638 1419.72 805.207 1418.29 805.207H1332.42C1330.98 805.207 1329.55 803.775 1329.55 801.867V36.1934C1329.55 33.8081 1328.12 32.377 1324.78 32.377L1326.69 31.8999ZM2.86233 34.2852C1.43117 34.2852 0 35.7163 0 37.6246V53.3674C0 55.2756 1.43117 57.1838 2.86233 57.1838H76.8059C81.5765 57.1838 83.4847 60.0462 84.9158 63.3856L379.259 826.674C380.213 828.582 382.121 830.013 384.029 830.013H404.066C405.497 830.013 406.928 828.582 407.882 827.151L686.483 75.789C690.299 64.8167 694.593 58.1379 707.95 58.1379H774.738C775.692 58.1379 777.123 56.2297 777.123 54.7986V38.1016C777.123 36.1934 775.692 35.2393 774.261 35.2393H576.76C575.329 35.2393 573.42 36.6705 573.42 38.5787V53.3674C573.42 55.2756 575.806 57.1838 577.237 57.1838H652.612C659.29 57.1838 664.538 60.5232 664.538 65.2938L662.63 76.266L458.45 624.88H456.065L248.546 62.9085V60.5232C248.546 58.615 249.5 57.1838 253.316 57.1838H334.416C335.847 57.1838 337.755 55.2756 337.755 53.8444V38.1016C337.755 36.1934 335.37 35.2393 333.939 35.2393H3.33939L2.86233 34.2852ZM1679.71 274.721C1517.51 274.721 1405.88 388.26 1405.88 558.569C1405.88 728.401 1517.51 838.6 1680.19 838.6C1842.39 838.6 1954.97 728.878 1954.97 558.569C1954.97 387.783 1842.86 274.721 1680.67 274.721H1679.71ZM2339 274.721C2255.52 274.721 2200.66 331.968 2175.37 395.416H2172.03V284.262C2172.03 281.877 2170.12 280.446 2167.26 280.446C2154.38 280.446 2124.33 283.308 2100.47 283.308H1956.4C1954.5 283.308 1953.54 284.262 1953.54 286.17V302.39C1953.54 304.298 1954.5 305.73 1956.4 305.73H2039.89C2041.8 305.73 2042.75 305.73 2042.75 308.115V802.344C2042.75 804.729 2041.32 805.684 2039.41 805.684H1954.5C1953.06 805.684 1951.63 807.115 1951.63 808.546V825.72C1951.63 827.151 1952.59 828.105 1954.02 828.105H2264.1C2265.54 828.105 2266.97 827.151 2266.97 825.243V807.592C2266.97 806.161 2266.01 804.729 2264.58 804.729H2178.71C2177.76 804.729 2175.85 803.775 2175.85 801.867V525.175C2175.85 448.846 2193.98 397.324 2214.01 371.563C2235.96 340.078 2265.54 305.73 2295.11 305.73C2303.22 305.73 2310.38 309.069 2310.38 317.179C2310.38 331.491 2302.27 351.527 2302.27 380.627C2302.27 423.562 2326.12 449.323 2369.06 449.323C2421.06 449.323 2443 425.471 2443 372.04C2443 323.381 2417.72 274.721 2339 274.721V274.721ZM1680.67 297.143C1704.52 297.143 1731.71 303.821 1747.45 314.794C1781.8 340.555 1807.09 406.865 1807.09 558.092C1807.09 710.75 1781.8 772.767 1746.98 798.528C1732.66 809.977 1704.04 816.656 1680.19 816.656C1656.34 816.656 1629.14 809.977 1613.4 799.005C1578.58 773.721 1553.29 711.227 1553.29 559.523C1553.29 407.819 1578.58 341.509 1613.88 316.225C1629.62 304.776 1656.81 298.097 1680.67 298.097V297.143ZM931.689 504.185V683.08C931.689 740.327 893.525 805.684 817.196 805.684C771.398 805.684 744.206 755.116 744.206 678.787C744.206 582.422 765.674 548.551 830.076 530.9C868.241 522.79 910.221 511.817 930.258 504.185H931.689Z" fill="#006269"/>
</svg>
