<svg width="2443" height="839" fill="none" xmlns="http://www.w3.org/2000/svg"><path fill-rule="evenodd" clip-rule="evenodd" d="m1779.89.891-17.65 23.853h8.11l16.22-13.358 15.75 14.312h8.11L1792.77.891h-12.88zm-257.61 28.623c-23.85 0-39.59 20.514-39.59 53.908v4.77c0 33.394 15.74 52.476 40.07 52.476 21.95 0 33.39-12.88 38.17-33.394l-16.22-3.816c-2.87 15.743-9.55 24.807-21 24.807-15.74 0-22.89-15.743-22.89-38.164v-8.11c0-22.9 7.15-38.165 22.42-38.165 11.92 0 18.13 7.156 20.99 22.899l16.22-4.77c-4.77-19.083-14.31-31.963-36.74-31.963l-1.43-.478zm83.97 0c-24.81 0-40.08 20.514-40.08 53.908v4.77c0 33.394 15.27 52.476 40.08 52.476 24.8 0 40.07-19.082 40.07-52.476v-4.77c0-33.394-15.27-53.43-40.07-53.43v-.478zm180.32 0c-24.8 0-40.07 20.514-40.07 53.908v4.77c0 33.394 15.27 52.476 40.07 52.476 24.81 0 40.55-19.082 40.55-52.476v-4.77c0-33.394-16.22-53.43-41.02-53.43l.47-.478zm265.25 0c-25.77 0-40.55 20.514-40.55 53.908v4.77c0 33.394 15.26 52.476 39.59 52.476 20.99 0 33.39-12.88 37.21-33.394l-15.74-3.816c-3.34 15.743-9.54 24.807-20.99 24.807-16.22 0-22.9-15.743-22.9-38.164v-8.11c0-22.9 6.68-38.165 22.42-38.165 10.5 0 16.7 7.156 19.08 22.899l16.7-4.77c-3.82-19.083-14.31-31.963-36.26-31.963l1.44-.478zm82.53 0c-24.81 0-40.08 20.514-40.08 53.908v4.77c0 33.394 14.31 52.476 39.6 52.476 25.28 0 40.55-19.082 40.55-52.476v-4.77c0-33.394-15.27-53.43-40.55-53.43l.48-.478zm-721.79 3.34v106.383h68.22v-12.88h-51.04V90.1h39.59V77.22h-40.07V45.257h50.09v-12.88h-66.79v.477zm246.16 0v106.383h15.74v-81.1l41.99 81.1h17.17V32.854h-15.27v77.76h-1.43l-40.07-78.237h-19.08l.95.477zm180.33 0v106.383h15.26V50.505h.96l27.67 89.686h17.65l27.67-89.21h1.91v88.256h16.22V32.854h-28.15l-25.28 85.87h-.96l-26.24-85.87h-26.71zm119.26 0v6.202h14.31v93.025h-14.31v7.156h46.75v-7.156h-15.26V39.056h15.26v-6.202h-47.7.95zm-352.54 10.972c15.26 0 22.9 14.312 22.9 38.164v8.11c0 22.899-7.64 38.165-22.9 38.165-15.27 0-22.42-15.266-22.42-38.164v-8.11c0-23.853 6.68-38.165 21.94-38.165h.48zm180.33 0c15.26 0 22.89 14.312 22.89 38.164v8.11c0 22.899-7.63 38.165-22.89 38.165-15.27 0-22.43-15.266-22.43-38.164v-8.11c0-23.853 7.16-38.165 22.43-38.165zm348.25 0c14.31 0 22.42 14.312 22.42 38.164v8.11c0 22.899-7.16 38.165-22.42 38.165-14.32 0-22.43-15.266-22.43-38.164v-8.11c0-23.853 7.64-38.165 22.43-38.165z" fill="#231F20"/><path fill-rule="evenodd" clip-rule="evenodd" d="M1326.69 31.9c-13.36 0-42.93 2.862-66.79 2.862h-149.32c-1.43 0-3.33 1.431-3.33 3.34v15.265c0 1.909 1.9 3.817 3.33 3.817h83.49c1.43 0 2.86.954 2.86 2.862v743.252c0 1.908-1.43 2.863-2.86 2.863h-59.63c-44.85 0-68.22-13.358-68.22-73.467V478.901c0-142.163-54.86-205.134-232.804-205.134-94.457.477-198.455 37.21-198.455 127.851 0 30.531 23.852 60.586 69.173 60.586 45.32 0 66.787-24.807 66.787-61.063 0-19.083-2.862-39.596-2.862-62.972 0-31.962 22.899-41.98 59.632-41.98 71.558 0 102.567 33.393 102.567 115.447v51.999c0 13.357-2.385 19.082-32.44 27.192-24.807 6.679-68.219 18.128-103.521 24.807-145.979 26.715-193.684 85.87-193.684 160.768 0 108.291 85.87 160.767 187.482 160.767 66.788 0 119.264-33.394 141.209-77.283h2.862c4.771 30.532 27.192 68.696 112.104 68.696h374.02c1.43 0 2.86-1.431 2.86-3.339v-17.174c0-1.431-1.43-2.862-2.86-2.862h-85.87c-1.44 0-2.87-1.432-2.87-3.34V36.193c0-2.385-1.43-3.816-4.77-3.816l1.91-.477zM2.862 34.285c-1.43 0-2.862 1.431-2.862 3.34v15.742c0 1.909 1.431 3.817 2.862 3.817h73.944c4.77 0 6.679 2.862 8.11 6.202l294.343 763.288c.954 1.908 2.862 3.339 4.77 3.339h20.037c1.431 0 2.862-1.431 3.816-2.862L686.483 75.789c3.816-10.972 8.11-17.651 21.467-17.651h66.788c.954 0 2.385-1.908 2.385-3.34V38.103c0-1.909-1.431-2.863-2.862-2.863H576.76c-1.431 0-3.34 1.431-3.34 3.34v14.788c0 1.909 2.386 3.817 3.817 3.817h75.375c6.678 0 11.926 3.34 11.926 8.11l-1.908 10.972L458.45 624.88h-2.385L248.546 62.909v-2.386c0-1.908.954-3.34 4.77-3.34h81.1c1.431 0 3.339-1.907 3.339-3.339V38.102c0-1.909-2.385-2.863-3.816-2.863H3.339l-.477-.954zM1679.71 274.721c-162.2 0-273.83 113.539-273.83 283.848 0 169.832 111.63 280.031 274.31 280.031 162.2 0 274.78-109.722 274.78-280.031 0-170.786-112.11-283.848-274.3-283.848h-.96zm659.29 0c-83.48 0-138.34 57.247-163.63 120.695h-3.34V284.262c0-2.385-1.91-3.816-4.77-3.816-12.88 0-42.93 2.862-66.79 2.862H1956.4c-1.9 0-2.86.954-2.86 2.862v16.22c0 1.908.96 3.34 2.86 3.34h83.49c1.91 0 2.86 0 2.86 2.385v494.229c0 2.385-1.43 3.34-3.34 3.34h-84.91c-1.44 0-2.87 1.431-2.87 2.862v17.174c0 1.431.96 2.385 2.39 2.385h310.08c1.44 0 2.87-.954 2.87-2.862v-17.651c0-1.431-.96-2.863-2.39-2.863h-85.87c-.95 0-2.86-.954-2.86-2.862V525.175c0-76.329 18.13-127.851 38.16-153.612 21.95-31.485 51.53-65.833 81.1-65.833 8.11 0 15.27 3.339 15.27 11.449 0 14.312-8.11 34.348-8.11 63.448 0 42.935 23.85 68.696 66.79 68.696 52 0 73.94-23.852 73.94-77.283 0-48.659-25.28-97.319-104-97.319zm-658.33 22.422c23.85 0 51.04 6.678 66.78 17.651 34.35 25.761 59.64 92.071 59.64 243.298 0 152.658-25.29 214.675-60.11 240.436-14.32 11.449-42.94 18.128-66.79 18.128-23.85 0-51.05-6.679-66.79-17.651-34.82-25.284-60.11-87.778-60.11-239.482s25.29-218.014 60.59-243.298c15.74-11.449 42.93-18.128 66.79-18.128v-.954zM931.689 504.185V683.08c0 57.247-38.164 122.604-114.493 122.604-45.798 0-72.99-50.568-72.99-126.897 0-96.365 21.468-130.236 85.87-147.887 38.165-8.11 80.145-19.083 100.182-26.715h1.431z" fill="#006269"/></svg>