<svg width="24" height="24" viewBox="0 0 24 24" fill="none" xmlns="http://www.w3.org/2000/svg">
<path d="M22.8658 2.27532L21.7301 1.13961C21.6873 1.09675 21.6337 1.078 21.5774 1.078C21.5212 1.078 21.4676 1.09943 21.4248 1.13961L19.3864 3.178C18.5002 2.57761 17.4541 2.2575 16.3837 2.25925C15.0123 2.25925 13.6408 2.78157 12.5935 3.8289L9.86404 6.55836C9.82416 6.59864 9.80179 6.65302 9.80179 6.7097C9.80179 6.76638 9.82416 6.82076 9.86404 6.86104L17.1417 14.1387C17.1846 14.1816 17.2381 14.2003 17.2944 14.2003C17.348 14.2003 17.4042 14.1789 17.4471 14.1387L20.1765 11.4093C22.0221 9.56104 22.239 6.703 20.8274 4.61908L22.8658 2.58068C22.9489 2.49497 22.9489 2.35836 22.8658 2.27532ZM18.8855 10.1209L17.2944 11.7119L12.2908 6.70836L13.8819 5.11729C14.5489 4.45032 15.4381 4.08068 16.3837 4.08068C17.3292 4.08068 18.2158 4.44765 18.8855 5.11729C19.5524 5.78425 19.9221 6.67354 19.9221 7.61907C19.9221 8.56461 19.5524 9.45122 18.8855 10.1209ZM13.7908 12.9334C13.7506 12.8935 13.6962 12.8711 13.6395 12.8711C13.5828 12.8711 13.5284 12.8935 13.4881 12.9334L11.7042 14.7173L9.28547 12.2985L11.0721 10.5119C11.1551 10.4289 11.1551 10.2923 11.0721 10.2093L10.0971 9.23425C10.0568 9.19437 10.0024 9.172 9.94574 9.172C9.88906 9.172 9.83467 9.19437 9.7944 9.23425L8.00779 11.0209L6.85601 9.86907C6.83601 9.84906 6.81218 9.83329 6.78595 9.82271C6.75971 9.81212 6.73161 9.80694 6.70333 9.80747C6.64976 9.80747 6.59351 9.8289 6.55065 9.86907L3.82386 12.5985C1.97833 14.4468 1.76136 17.3048 3.17297 19.3887L1.13458 21.4271C1.0947 21.4674 1.07233 21.5218 1.07233 21.5785C1.07233 21.6351 1.0947 21.6895 1.13458 21.7298L2.27029 22.8655C2.31315 22.9084 2.36672 22.9271 2.42297 22.9271C2.47922 22.9271 2.53279 22.9057 2.57565 22.8655L4.61404 20.8271C5.51672 21.4405 6.56672 21.7459 7.61672 21.7459C8.98815 21.7459 10.3596 21.2235 11.4069 20.1762L14.1364 17.4468C14.2194 17.3637 14.2194 17.2271 14.1364 17.1441L12.9846 15.9923L14.7712 14.2057C14.8542 14.1226 14.8542 13.986 14.7712 13.903L13.7908 12.9334ZM10.1158 18.8905C9.78799 19.22 9.3981 19.4813 8.96869 19.6592C8.53928 19.8371 8.07886 19.9282 7.61404 19.9271C6.66851 19.9271 5.7819 19.5601 5.11226 18.8905C4.78274 18.5627 4.52147 18.1728 4.34355 17.7434C4.16562 17.314 4.07457 16.8535 4.07565 16.3887C4.07565 15.4432 4.44261 14.5566 5.11226 13.8869L6.70333 12.2959L11.7069 17.2994L10.1158 18.8905Z" fill="#F26526"/>
</svg>
