<svg width="498" height="508" xmlns="http://www.w3.org/2000/svg"><g fill="#F26526" fill-rule="nonzero"><path d="M356.8 347.8c2.1-9.5 7.8-17.6 16-22.8 8.2-5.2 17.9-6.9 27.4-4.8l3.6-16c-13.8-3.1-27.9-.6-39.8 6.9-11.9 7.5-20.2 19.3-23.3 33l16.1 3.7z"/><path d="m493.6 469.9-31.4-49.6-13.8 8.8-5.6-8.8c19.1-15 31.4-38.3 31.4-64.4 0-45.3-36.7-81.9-81.9-81.9-5 0-9.8.5-14.6 1.4-37.1-29.4-76.9-29.4-76.9-29.4l-54.7 121-13.3-52 11.2-36.4h-68.6l11.3 36.4-13.3 51.7-54.7-121s-87.4 0-112.8 83.7c-6.1 20.1-6.9 41.6-2.1 62L31.2 508h357.1l16.8-71.4c8.4-1.3 16.4-3.9 23.8-7.6l5.6 8.8-13.9 8.8 31.4 49.6c6.9 9.5 20.2 16.2 33.9 7.6 16.5-10.3 11.2-28.4 7.7-33.9zm-35.8-114.1c0 36.2-29.3 65.5-65.5 65.5s-65.5-29.3-65.5-65.5 29.3-65.5 65.5-65.5 65.5 29.3 65.5 65.5zm-254-41.2-6.1-19.6h24.1l-6.1 19.6 19.6 75.9-25.6 56.6-25.6-56.6 19.7-75.9zm128.9 177v-49.2h-16.4v49.2h-213v-49.2H86.9v49.2H44.2L19.8 387.8c-4.2-17.6-3.5-36.1 1.8-53.5 12-39 46.5-67.2 86.9-71.5l101.3 224.1 101.3-224.1c17.4 1.8 33.8 8.1 48 18-28.7 12.7-48.8 41.4-48.8 74.9 0 43.8 34.5 79.5 77.8 81.7l-12.7 54.1h-42.7v.1zm144.5-1.6c-3.7 2.4-9 1.1-11.3-2.5l-22.7-35.8 13.8-8.8 22.7 35.8c1.2 1.8 3.3 7.6-2.5 11.3z"/><path d="M209.8 262.2c62.6 0 106.5-101 106.5-155.7C316.3 47.8 268.5 0 209.8 0S103.3 47.8 103.3 106.5c0 54.7 43.9 155.7 106.5 155.7zm0-245.8c31 0 58.4 15.7 74.6 39.6-6 6.4-12.8 9.4-19.7 8.7-9.1-1-17.9-8.2-22.9-19l-5.7-12.3-8.2 10.8c-33.7 44.3-79.4 27.3-96.7 18.5 15.3-27.6 44.8-46.3 78.6-46.3zm-85.3 61.1c10.4 5.1 28.5 12.1 48.9 12.1 19.3 0 40.8-6.3 59.8-26.4C241 73.3 251.5 79.8 263 81c10.6 1.1 20.8-2.4 29.6-10.1 4.7 10.9 7.4 23 7.4 35.6 0 52.5-42.1 139.3-90.1 139.3-48 0-90.1-86.8-90.1-139.3-.1-10.1 1.6-19.9 4.7-29z"/></g></svg>