<svg xmlns="http://www.w3.org/2000/svg" width="18" height="13" viewBox="0 0 18 13">
    <g fill="#FF7522" fill-rule="nonzero">
        <path d="M5.754 2.489H2.489c-.271 0-.49-.263-.49-.533s.219-.534.49-.534h3.265c.27 0 .49.263.49.534 0 .27-.22.533-.49.533zM5.427 1.067H2.815c-.27 0-.49-.263-.49-.534 0-.27.22-.533.49-.533h2.612c.27 0 .49.263.49.533s-.22.534-.49.534z"/>
        <path stroke="#FF7522" stroke-width=".4" d="M16.53 3.022h-1.606l.552-1.864a.494.494 0 0 0-.33-.613.485.485 0 0 0-.61.322l-.64 2.155H1.508c-.27 0-.509.125-.509.395v8.326c0 .271.263.49.533.49s.534-.219.534-.49V3.911H13.63l-.211.711h-3.253c-.12 0-.23.034-.287.14a.273.273 0 0 0 .013.302l1.552 2.403H9.02c-.27 0-.49.263-.49.533s.22.533.49.533H10.6v1.778H9.51c-.124 0-.236.05-.292.16l-.463.906a.435.435 0 1 0 .539.43l.416-.785h.89v.57a.435.435 0 1 0 .711-.077v-.493h.941l.42.75c-.001.009-.003.017-.003.026a.435.435 0 1 0 .567-.413l-.5-.92c-.057-.106-.168-.154-.288-.154H11.31V8.533h1.626c.217 0 .408-.172.47-.38l1.255-4.242h1.271v7.832c0 .271.263.49.534.49.27 0 .533-.219.533-.49V3.417c0-.27-.2-.395-.47-.395zm-3.958 4.445h-.329l-1.477-2.311h2.494l-.688 2.31z"/>
    </g>
</svg>
