<svg xmlns="http://www.w3.org/2000/svg" width="16" height="18"><g fill="#FF7522"><path stroke="#FF7522" stroke-width=".2" d="M12.683 1.083H3.317A2.27 2.27 0 0 0 1.05 3.35v11.317a2.269 2.269 0 0 0 2.267 2.266H12.7a2.269 2.269 0 0 0 2.267-2.266V3.35a2.295 2.295 0 0 0-2.284-2.267zm1.2 13.567c0 .65-.533 1.2-1.2 1.2H3.317c-.65 0-1.2-.533-1.2-1.2V3.35c0-.65.533-1.2 1.2-1.2H12.7c.65 0 1.2.533 1.2 1.2v11.3h-.017z"/><path d="M5.917 4.217a.277.277 0 0 0-.2-.084.308.308 0 0 0-.2.084l-.917.916-.367-.366c-.1-.1-.283-.1-.383 0L3.633 5c-.1.1-.1.283 0 .383l.784.784c.05.05.116.083.2.083a.348.348 0 0 0 .2-.083L6.15 4.833a.275.275 0 0 0 .083-.2.309.309 0 0 0-.083-.2l-.233-.216zm6.1-.267H7.533c-.233 0-.433.2-.433.433 0 .234.2.434.433.434h4.484c.233 0 .433-.2.433-.434a.43.43 0 0 0-.433-.433zM7.533 6.433h3.15c.234 0 .434-.2.434-.433 0-.233-.2-.433-.434-.433h-3.15c-.233 0-.433.2-.433.433 0 .233.2.433.433.433zM4.6 10.05a.346.346 0 0 0 .2-.083l1.333-1.334c.1-.1.1-.283 0-.383l-.216-.217c-.1-.1-.284-.1-.384 0l-.916.917-.367-.367c-.1-.1-.283-.1-.383 0L3.65 8.8c-.1.1-.1.283 0 .383l.783.784c.034.066.1.083.167.083zm7.417-2.3H7.533c-.233 0-.433.2-.433.433 0 .234.2.434.433.434h4.484c.233 0 .433-.2.433-.434a.43.43 0 0 0-.433-.433zm-4.484 2.5h3.15c.234 0 .434-.2.434-.433 0-.234-.2-.434-.434-.434h-3.15c-.233 0-.433.2-.433.434 0 .233.2.433.433.433zm-1.616 1.583a.276.276 0 0 0-.2-.083.306.306 0 0 0-.2.083l-.917.917-.367-.367c-.1-.1-.283-.1-.383 0l-.217.217c-.1.1-.1.283 0 .383l.784.784c.05.05.116.083.2.083a.348.348 0 0 0 .2-.083l1.333-1.334a.275.275 0 0 0 .083-.2.309.309 0 0 0-.083-.2l-.233-.2zm6.1-.266H7.533c-.233 0-.433.2-.433.433 0 .233.2.433.433.433h4.484c.233 0 .433-.2.433-.433a.43.43 0 0 0-.433-.433zm-1.334 1.616h-3.15c-.233 0-.433.2-.433.434 0 .233.2.433.433.433h3.15c.234 0 .434-.2.434-.433a.431.431 0 0 0-.434-.434z"/></g></svg>