<svg xmlns="http://www.w3.org/2000/svg" width="19" height="16" viewBox="0 0 19 16">
    <path fill="#FF7522" fill-rule="nonzero" d="M7.584 7.046c-.201.066-.38.068-.49.062a1.57 1.57 0 0 1-.476-.104c-1.082-.426-1.548-2.051-1.424-3.27.037-.354.084-.762.376-1.16.505-.686 1.328-.777 1.523-.793.194.01.867.065 1.37.61.439.472.489 1.031.527 1.45.112 1.235-.371 2.866-1.406 3.205m7.166-1.71c-.078.63-.482 1.559-1.036 1.559-.556 0-.96-.927-1.038-1.56-.03-.243-.109-.881.305-1.27.286-.269.655-.273.733-.272.059 0 .46.011.758.32.381.391.31.971.278 1.223m4.234 5.54c-.01-.135-.016-.203-.03-.295a3.085 3.085 0 0 0-.084-.37 2.34 2.34 0 0 0-.25-.605 2.44 2.44 0 0 0-.25-.354 3.525 3.525 0 0 0-.21-.225c-.079-.078-.139-.138-.228-.212-.088-.075-.16-.124-.249-.187-.097-.068-.145-.096-.171-.112a3.495 3.495 0 0 1-.107-.058c-.065-.035-.118-.062-.126-.068-.169-.089-.412-.185-.412-.185a71.518 71.518 0 0 1-1.162-.492 4.46 4.46 0 0 0 .293-.5c.45-.895.51-1.775.488-2.368.001-.273-.033-1.017-.535-1.717-.805-1.117-2.104-1.139-2.237-1.139-.151 0-1.387.023-2.193 1.086-.548.722-.58 1.507-.58 1.77a4.556 4.556 0 0 0 .375 2.07c.146.327.315.596.475.812.185.225.597.659 1.255.855.27.08.504.1.668.1.378.042 2.89.353 3.445 1.953.045.131.079.276.096.435a.3.3 0 0 1-.046.22.28.28 0 0 1-.158.11 7.033 7.033 0 0 1-3.008.409 3.423 3.423 0 0 0-.233-.7c-.394-.858-1.115-1.361-1.353-1.523a8.096 8.096 0 0 0-1.9-.915c-.152-.048-.545-.164-.851-.523a1.535 1.535 0 0 1-.23-.368c.17-.2.393-.493.594-.882.24-.466.34-.854.421-1.179a7.79 7.79 0 0 0 .228-1.877 3.876 3.876 0 0 0-.505-2.003A3.86 3.86 0 0 0 9.082.621 3.53 3.53 0 0 0 7.093 0a3.502 3.502 0 0 0-1.567.37 3.808 3.808 0 0 0-1.578 1.514 3.86 3.86 0 0 0-.48 1.958c0 .446.039.815.076 1.079.037.268.176 1.154.557 1.958.185.39.378.654.423.717.095.128.18.23.244.3.462.517 1.005.718 1.224.8.168.062.299.096.336.106.064.015.364.088.765.087a3.47 3.47 0 0 0 .866-.116c.123.227.343.563.704.881.352.31.7.478.935.569.39.134.712.266.951.372.437.192.628.304.713.357.213.13.375.23.557.41.103.103.361.347.501.744.077.22.1.436.112.54.014.133.015.247.014.331-.003.015-.006.034-.015.057a.438.438 0 0 1-.16.206c-.175.134-.396.223-.43.237-.277.11-.44.16-.44.16-.35.112-.633.18-.756.209-.37.086-.653.133-.863.167a16.773 16.773 0 0 1-2.689.207c-.199-.006-1.666-.049-2.66-.203-.333-.052-.668-.122-.668-.122a7.69 7.69 0 0 1-.951-.247 6.143 6.143 0 0 1-.573-.223 2.426 2.426 0 0 1-.351-.211.353.353 0 0 1-.13-.155.32.32 0 0 1-.019-.082c-.002-.095.001-.225.02-.374 0 0 .028-.24.09-.44.221-.716 1.07-1.168 1.127-1.197.13-.067.302-.146.302-.146.12-.056.22-.1.295-.13a.898.898 0 0 0 .49-1.154.856.856 0 0 0-1.12-.505 4.49 4.49 0 0 0-1.34.702c-.297.227-.81.627-1.183 1.354-.202.392-.508 1.16-.4 2.075.014.117.032.213.046.278a1.888 1.888 0 0 0 .378.777c.104.132.198.22.261.278.153.142.284.231.378.296.222.15.404.238.541.305.212.102.377.163.507.211.056.021.308.115.687.217.109.03.378.101.785.18.19.036.562.103 1.114.167a21.169 21.169 0 0 0 3.136.115 19.851 19.851 0 0 0 1.786-.139c.26-.033.59-.075 1.005-.161a9.253 9.253 0 0 0 1.122-.295c.585-.197.905-.373.981-.416a3.987 3.987 0 0 0 .816-.607c.069-.073.17-.178.272-.338a1.997 1.997 0 0 0 .21-.441c.128-.003.276-.007.455-.015.33-.017.78-.039 1.35-.126.265-.041.579-.09.983-.204.333-.093.54-.18.594-.2.172-.072.422-.177.71-.375.272-.187.405-.34.476-.43A1.823 1.823 0 0 0 19 11.181a7.278 7.278 0 0 0-.016-.305"/>
</svg>
