<svg width="16" height="16" viewBox="0 0 16 16" fill="none" xmlns="http://www.w3.org/2000/svg">
<rect width="16" height="16" fill="white"/>
<path d="M11.1433 3.5682C11.1433 3.48963 11.079 3.42535 11.0004 3.42535H4.14328C4.0647 3.42535 4.00042 3.48963 4.00042 3.5682V4.42534C4.00042 4.50392 4.0647 4.5682 4.14328 4.5682H11.0004C11.079 4.5682 11.1433 4.50392 11.1433 4.42534V3.5682ZM11.0004 5.99677H4.14328C4.0647 5.99677 4.00042 6.06106 4.00042 6.13963V6.99677C4.00042 7.07535 4.0647 7.13963 4.14328 7.13963H11.0004C11.079 7.13963 11.1433 7.07535 11.1433 6.99677V6.13963C11.1433 6.06106 11.079 5.99677 11.0004 5.99677ZM7.42899 8.5682H4.14328C4.0647 8.5682 4.00042 8.63249 4.00042 8.71106V9.5682C4.00042 9.64677 4.0647 9.71106 4.14328 9.71106H7.42899C7.50756 9.71106 7.57185 9.64677 7.57185 9.5682V8.71106C7.57185 8.63249 7.50756 8.5682 7.42899 8.5682ZM6.57185 14.0682H2.57185V1.49677H12.5718V7.63963C12.5718 7.7182 12.6361 7.78249 12.7147 7.78249H13.7147C13.7933 7.78249 13.8576 7.7182 13.8576 7.63963V0.782488C13.8576 0.466417 13.6022 0.21106 13.2861 0.21106H1.85756C1.54149 0.21106 1.28613 0.466417 1.28613 0.782488V14.7825C1.28613 15.0986 1.54149 15.3539 1.85756 15.3539H6.57185C6.65042 15.3539 6.7147 15.2896 6.7147 15.2111V14.2111C6.7147 14.1325 6.65042 14.0682 6.57185 14.0682ZM12.9433 12.7396C13.4611 12.27 13.7861 11.5914 13.7861 10.8361C13.7861 9.41642 12.6343 8.26463 11.2147 8.26463C9.79506 8.26463 8.64328 9.41642 8.64328 10.8361C8.64328 11.5914 8.96828 12.27 9.48613 12.7396C8.46828 13.32 7.76828 14.395 7.7147 15.6343C7.71113 15.7146 7.7772 15.7825 7.85756 15.7825H8.71649C8.79149 15.7825 8.85399 15.7236 8.85935 15.6468C8.92899 14.4111 9.95935 13.4253 11.2147 13.4253C12.4701 13.4253 13.5004 14.4111 13.5701 15.6468C13.5736 15.7218 13.6361 15.7825 13.7129 15.7825H14.5718C14.654 15.7825 14.7183 15.7146 14.7147 15.6343C14.6629 14.3932 13.9611 13.32 12.9433 12.7396ZM11.2147 9.40749C12.004 9.40749 12.6433 10.0468 12.6433 10.8361C12.6433 11.6253 12.004 12.2646 11.2147 12.2646C10.4254 12.2646 9.78613 11.6253 9.78613 10.8361C9.78613 10.0468 10.4254 9.40749 11.2147 9.40749Z" fill="#F26526"/>
</svg>
