<svg width="95" height="98" xmlns="http://www.w3.org/2000/svg"><path d="M8.09 56.93c-9.533-9.536-9.533-24.994 0-34.53l10.06-10.06a2 2 0 0 1 1-.54 2 2 0 0 1 .85 0l3.22.7a1.24 1.24 0 0 0 1.15-.34c.342-.33.49-.815.39-1.28l-.68-3.17a2 2 0 0 1 .54-1.83l3.94-3.94a4.63 4.63 0 0 1 6.55 0l12.82 12.83a4.64 4.64 0 0 1 0 6.55L44 25.26a2 2 0 0 1-1.83.54l-3.66-.8a.55.55 0 0 0-.55.21 3.29 3.29 0 0 0-.43 2 5.92 5.92 0 0 0 1.93 3.24l3.91 3.35a2 2 0 1 1-2.6 3l-3.91-3.35a9.94 9.94 0 0 1-3.24-5.44 7.15 7.15 0 0 1 1.11-5.23 4.55 4.55 0 0 1 4.63-1.77l2.59.55 3.17-3.17a.64.64 0 0 0 0-.9L32.27 4.77a.63.63 0 0 0-.9 0l-3.16 3.17.45 2.1A5.35 5.35 0 0 1 27.23 15a5.22 5.22 0 0 1-4.86 1.45l-2.15-.47-9.29 9.29c-7.647 7.64-8.015 19.915-.84 28l2.63-2a12 12 0 0 1 2.75-12.78c.22-.22.447-.43.68-.63 4.708-3.883 11.66-3.273 15.62 1.37l3.1 3.55a2 2 0 0 1-3 2.63l-3.1-3.55a7.17 7.17 0 0 0-10-1 8 8 0 0 0-1.98 9.69 2.58 2.58 0 0 1-.79 3.24l-4.55 3.39a2.59 2.59 0 0 1-3.36-.24v-.01zm69.49 29.52a6.26 6.26 0 0 1-4.52-2.07L58.29 67.75a2.005 2.005 0 0 0-3 2.66L70.07 87a10.24 10.24 0 0 0 7.4 3.4h.27a10.33 10.33 0 0 0 6.9-18L68 57.68a2.005 2.005 0 0 0-2.66 3L82 75.43a6.33 6.33 0 0 1-4.4 11l-.02.02zM95 25.29a19.7 19.7 0 0 1-19.64 21.63c-.51 0-1 0-1.53-.06a8.47 8.47 0 0 0-6.72 2.46L47 69.46a8.56 8.56 0 0 0-2.46 6.72 19.7 19.7 0 0 1-19.68 21.24c-.64 0-1.29 0-1.92-.09a3.84 3.84 0 0 1-3.26-2.55 3.9 3.9 0 0 1 .92-4.11l5.77-5.77a3.07 3.07 0 0 0 0-4.34L22 76.17a3.15 3.15 0 0 0-4.34 0l-5.77 5.77a3.91 3.91 0 0 1-6.69-2.35A19.7 19.7 0 0 1 24.82 58c.51 0 1 0 1.53.06a8.5 8.5 0 0 0 6.72-2.46L53.2 35.42a8.56 8.56 0 0 0 2.46-6.72A19.7 19.7 0 0 1 77.24 7.56a3.84 3.84 0 0 1 3.27 2.55 3.9 3.9 0 0 1-.92 4.11L73.82 20a3.08 3.08 0 0 0 0 4.34l4.38 4.38a3.15 3.15 0 0 0 4.34 0l5.77-5.77A3.91 3.91 0 0 1 95 25.29zm-4 .57-5.64 5.67a7.07 7.07 0 0 1-10 0L71 27.16a7.08 7.08 0 0 1 0-10l5.64-5.64a15.7 15.7 0 0 0-17 16.87A12.55 12.55 0 0 1 56 38.24L35.89 58.38A12.5 12.5 0 0 1 26 62 15.7 15.7 0 0 0 9.17 79l5.63-5.68a7.07 7.07 0 0 1 10 0l4.38 4.38a7.08 7.08 0 0 1 0 10l-5.64 5.64c.44 0 .88.05 1.32.05a15.7 15.7 0 0 0 15.66-16.9 12.55 12.55 0 0 1 3.62-9.86L64.28 46.5a12.5 12.5 0 0 1 9.86-3.62h1.22A15.7 15.7 0 0 0 91 25.86z" fill="#F26526" fill-rule="nonzero"/></svg>