<svg xmlns="http://www.w3.org/2000/svg" width="17" height="17" viewBox="0 0 17 17">
    <g fill="#FF7522" stroke="#FF7522" stroke-width=".3">
        <path d="M8.92 5.824l.914-.914c.332.255.803.223 1.099-.073h0c.327-.33.327-.861 0-1.19L7.638.353C7.328.038 6.825.019 6.491.309c-.334.29-.385.791-.116 1.143L3.183 4.644c-.351-.27-.852-.219-1.142.115-.29.334-.272.837.043 1.148L5.38 9.2c.157.158.371.247.594.247.224 0 .438-.09.595-.247h0c.298-.296.33-.766.073-1.099l.914-.914 5.311 5.772c.238.26.572.412.925.418h.03c.533.001 1.012-.326 1.206-.823.193-.498.06-1.063-.334-1.422L8.92 5.823zm-2.68 1.86L3.6 5.043 6.776 1.87 9.41 4.509 6.24 7.684zM6.86.77c.102-.102.267-.102.37 0l3.294 3.277c.069.067.097.165.074.258-.023.093-.094.166-.186.192-.092.027-.191.002-.26-.064l-.122-.122h0L6.86 1.133c-.103-.102-.103-.267 0-.37v.008zm-.7 8.02h0c-.104.098-.267.098-.37 0L2.494 5.497c-.067-.067-.092-.163-.068-.254.024-.091.095-.162.186-.186.09-.025.188.001.254.068L6.16 8.42c.101.103.101.268 0 .37h0zm8.163 3.8c-.136.14-.325.215-.52.209-.195-.003-.38-.087-.511-.231L7.966 6.786l.545-.546 5.791 5.326c.144.132.228.316.232.511.005.195-.07.383-.209.52l-.002-.005zM8.5 15.31v-.467c0-.372-.302-.674-.675-.674H7.16c-.14-.74-.788-1.276-1.542-1.273H2.89c-.753-.003-1.402.532-1.542 1.273H.691c-.373 0-.675.302-.675.674v.467c0 .373.302.675.675.675h7.132c.18 0 .352-.07.479-.197s.198-.299.198-.478h0zm-5.61-1.835h2.738c.43.001.809.282.935.694H1.955c.126-.412.505-.693.935-.694zM.596 15.31v-.467c0-.053.044-.096.097-.096h7.132c.054 0 .097.043.097.096v.467c0 .053-.043.096-.097.096H.693c-.026 0-.051-.01-.07-.027-.018-.018-.029-.043-.029-.07h.002z" transform="matrix(-1 0 0 1 16 .5)"/>
    </g>
</svg>
