<svg width="17" height="16" xmlns="http://www.w3.org/2000/svg"><path d="M9.39 15a.61.61 0 0 1-.29-.08L3.76 12a.61.61 0 0 1-.32-.53V8.79a.61.61 0 0 1 .89-.53l5 2.76 5-2.75a.6.6 0 0 1 .89.53v2.69A.6.6 0 0 1 15 12l-5.34 2.91a.59.59 0 0 1-.27.09zm-5.16-3.63 5.15 2.81 5.15-2.81V9.1l-4.86 2.65a.6.6 0 0 1-.58 0L4.23 9.1v2.27zm13.08.49a1.19 1.19 0 0 1-1.19-1.19v-4l-6.45 3.52a.6.6 0 0 1-.58 0L.81 5.65a.61.61 0 0 1 0-1.06L9.1.07c.18-.1.4-.1.58 0l8.51 4.64a.6.6 0 0 1 .32.53v5.42a1.19 1.19 0 0 1-1.2 1.2zm-1-6.13a.61.61 0 0 1 .6.61v4.33a.4.4 0 0 0 .79 0V5.36L9.39.82 1.5 5.12l7.89 4.3L16 5.81a.6.6 0 0 1 .31-.08z" fill="#F26526" fill-rule="nonzero"/></svg>