<svg xmlns="http://www.w3.org/2000/svg" width="17" height="17"><path d="m7.08 6.324-.914-.914a.836.836 0 0 1-1.099-.073.844.844 0 0 1 0-1.19L8.362.853a.839.839 0 0 1 1.263 1.099l3.192 3.192a.837.837 0 0 1 1.142.115.84.84 0 0 1-.043 1.148L10.62 9.7a.838.838 0 0 1-1.189 0 .831.831 0 0 1-.073-1.099l-.914-.914-5.311 5.772c-.238.26-.572.412-.925.418h-.03a1.292 1.292 0 0 1-.872-2.245L7.08 6.323zm2.68 1.86 2.64-2.641L9.224 2.37 6.59 5.009l3.17 3.175zM9.14 1.27a.262.262 0 0 0-.37 0L5.476 4.547a.27.27 0 0 0-.074.258.267.267 0 0 0 .446.128l.122-.122 3.17-3.178a.26.26 0 0 0 0-.37v.008zm.7 8.02a.27.27 0 0 0 .37 0l3.296-3.293a.263.263 0 1 0-.372-.372L9.84 8.92a.264.264 0 0 0 0 .37zm-8.163 3.8c.136.14.325.215.52.209a.706.706 0 0 0 .511-.231l5.326-5.782-.545-.546-5.791 5.326a.713.713 0 0 0-.023 1.031l.002-.005zM7.5 15.81v-.467c0-.372.302-.674.675-.674h.665c.14-.74.788-1.276 1.542-1.273h2.728a1.563 1.563 0 0 1 1.542 1.273h.657c.373 0 .675.302.675.674v.467a.675.675 0 0 1-.675.675H8.177a.676.676 0 0 1-.677-.675zm5.61-1.835h-2.738a.98.98 0 0 0-.935.694h4.608a.98.98 0 0 0-.935-.694zm2.294 1.835v-.467a.097.097 0 0 0-.097-.096H8.175a.096.096 0 0 0-.097.096v.467c0 .053.043.096.097.096h7.132c.026 0 .051-.01.07-.027a.1.1 0 0 0 .029-.07h-.002z" fill="#FF7522" stroke="#FF7522" stroke-width=".3"/></svg>