<svg xmlns="http://www.w3.org/2000/svg" width="17" height="16" viewBox="0 0 17 16">
    <g fill="#FF7522" fill-rule="nonzero">
        <path d="M16 11.13h-2.783V2.087A2.087 2.087 0 0 0 11.13 0H2.087A2.087 2.087 0 0 0 0 2.087v10.435A3.478 3.478 0 0 0 3.478 16h9.74a3.478 3.478 0 0 0 3.478-3.478v-.696A.696.696 0 0 0 16 11.13zM1.391 12.522V2.087c0-.384.312-.696.696-.696h9.043c.385 0 .696.312.696.696v9.043H6.261a.696.696 0 0 0-.696.696v.696a2.087 2.087 0 1 1-4.174 0zm11.826 2.087H6.243c.46-.599.711-1.332.714-2.087h8.347a2.087 2.087 0 0 1-2.087 2.087z"/>
        <path d="M3.478 4.174H9.74a.696.696 0 0 0 0-1.391H3.48a.696.696 0 1 0 0 1.39zM3.478 6.957H9.74a.696.696 0 0 0 0-1.392H3.48a.696.696 0 0 0 0 1.392zM9.74 9.74a.696.696 0 0 0 0-1.392H3.477a.696.696 0 1 0 0 1.391H9.74z"/>
    </g>
</svg>
