<svg width="16" height="16" fill="none" xmlns="http://www.w3.org/2000/svg"><path fill="#fff" d="M0 0h16v16H0z"/><path d="M11.143 3.568A.143.143 0 0 0 11 3.425H4.143A.143.143 0 0 0 4 3.568v.857c0 .079.065.143.143.143H11a.143.143 0 0 0 .143-.143v-.857zM11 5.997H4.143A.143.143 0 0 0 4 6.14v.857c0 .078.065.143.143.143H11a.143.143 0 0 0 .143-.143V6.14A.143.143 0 0 0 11 5.997zM7.43 8.568H4.143A.143.143 0 0 0 4 8.711v.857c0 .079.065.143.143.143H7.43a.143.143 0 0 0 .143-.143v-.857a.143.143 0 0 0-.143-.143zm-.857 5.5h-4V1.497h10V7.64c0 .078.064.142.143.142h1a.143.143 0 0 0 .143-.142V.782a.57.57 0 0 0-.572-.57H1.858a.57.57 0 0 0-.572.57v14a.57.57 0 0 0 .572.572h4.714a.143.143 0 0 0 .143-.143v-1a.143.143 0 0 0-.143-.143zm6.371-1.328a2.572 2.572 0 1 0-3.457 0 3.51 3.51 0 0 0-1.771 2.894.143.143 0 0 0 .143.149h.858a.144.144 0 0 0 .143-.136 2.362 2.362 0 0 1 2.356-2.222c1.255 0 2.285.986 2.355 2.222a.143.143 0 0 0 .143.136h.859a.142.142 0 0 0 .143-.149 3.503 3.503 0 0 0-1.772-2.894zm-1.728-3.333a1.428 1.428 0 1 1 0 2.857 1.428 1.428 0 0 1 0-2.857z" fill="#F26526"/></svg>