<svg xmlns="http://www.w3.org/2000/svg" width="16" height="18" viewBox="0 0 16 18">
    <g fill="#FF7522">
        <path stroke="#FF7522" stroke-width=".2" d="M11.683.083H2.317C1.067.083.05 1.1.05 2.35v11.317c0 1.25 1.017 2.266 2.267 2.266H11.7c1.25 0 2.267-1.016 2.267-2.266V2.35C13.95 1.1 12.933.083 11.683.083zm1.2 13.567c0 .65-.533 1.2-1.2 1.2H2.317c-.65 0-1.2-.533-1.2-1.2V2.35c0-.65.533-1.2 1.2-1.2H11.7c.65 0 1.2.533 1.2 1.2v11.3h-.017z" transform="translate(1 1)"/>
        <path d="M4.917 3.217c-.05-.05-.117-.084-.2-.084-.067 0-.15.034-.2.084l-.917.916-.367-.366c-.1-.1-.283-.1-.383 0L2.633 4c-.1.1-.1.283 0 .383l.784.784c.05.05.116.083.2.083.066 0 .133-.033.2-.083L5.15 3.833c.05-.05.083-.116.083-.2 0-.066-.033-.15-.083-.2l-.233-.216zM11.017 2.95H6.533c-.233 0-.433.2-.433.433 0 .234.2.434.433.434h4.484c.233 0 .433-.2.433-.434 0-.233-.183-.433-.433-.433zM6.533 5.433h3.15c.234 0 .434-.2.434-.433 0-.233-.2-.433-.434-.433h-3.15c-.233 0-.433.2-.433.433 0 .233.2.433.433.433zM3.6 9.05c.067 0 .133-.033.2-.083l1.333-1.334c.1-.1.1-.283 0-.383l-.216-.217c-.1-.1-.284-.1-.384 0l-.916.917-.367-.367c-.1-.1-.283-.1-.383 0L2.65 7.8c-.1.1-.1.283 0 .383l.783.784c.034.066.1.083.167.083zM11.017 6.75H6.533c-.233 0-.433.2-.433.433 0 .234.2.434.433.434h4.484c.233 0 .433-.2.433-.434 0-.233-.183-.433-.433-.433zM6.533 9.25h3.15c.234 0 .434-.2.434-.433 0-.234-.2-.434-.434-.434h-3.15c-.233 0-.433.2-.433.434 0 .233.2.433.433.433zM4.917 10.833c-.05-.05-.117-.083-.2-.083-.067 0-.15.033-.2.083l-.917.917-.367-.367c-.1-.1-.283-.1-.383 0l-.217.217c-.1.1-.1.283 0 .383l.784.784c.05.05.116.083.2.083.066 0 .133-.033.2-.083l1.333-1.334c.05-.05.083-.116.083-.2 0-.066-.033-.15-.083-.2l-.233-.2zM11.017 10.567H6.533c-.233 0-.433.2-.433.433 0 .233.2.433.433.433h4.484c.233 0 .433-.2.433-.433 0-.233-.183-.433-.433-.433zM9.683 12.183h-3.15c-.233 0-.433.2-.433.434 0 .233.2.433.433.433h3.15c.234 0 .434-.2.434-.433 0-.234-.184-.434-.434-.434z" transform="translate(1 1)"/>
    </g>
</svg>
