<svg width="22" height="24" viewBox="0 0 22 24" fill="none" xmlns="http://www.w3.org/2000/svg">
<path d="M15.7144 6.74869V5.46298C15.7144 5.34512 15.618 5.24869 15.5001 5.24869H5.21443C5.09657 5.24869 5.00014 5.34512 5.00014 5.46298V6.74869C5.00014 6.86655 5.09657 6.96298 5.21443 6.96298H15.5001C15.618 6.96298 15.7144 6.86655 15.7144 6.74869ZM5.21443 9.10583C5.09657 9.10583 5.00014 9.20226 5.00014 9.32012V10.6058C5.00014 10.7237 5.09657 10.8201 5.21443 10.8201H10.143C10.2609 10.8201 10.3573 10.7237 10.3573 10.6058V9.32012C10.3573 9.20226 10.2609 9.10583 10.143 9.10583H5.21443ZM9.07157 21.213H2.85728V2.35583H17.8573V11.5701C17.8573 11.688 17.9537 11.7844 18.0716 11.7844H19.5716C19.6894 11.7844 19.7859 11.688 19.7859 11.5701V1.2844C19.7859 0.810297 19.4028 0.427261 18.9287 0.427261H1.78585C1.31175 0.427261 0.928711 0.810297 0.928711 1.2844V22.2844C0.928711 22.7585 1.31175 23.1415 1.78585 23.1415H9.07157C9.18942 23.1415 9.28585 23.0451 9.28585 22.9273V21.4273C9.28585 21.3094 9.18942 21.213 9.07157 21.213ZM21.01 22.5924L18.5109 20.0933C19.1082 19.3032 19.4644 18.3174 19.4644 17.2487C19.4644 14.6451 17.3537 12.5344 14.7501 12.5344C12.1466 12.5344 10.0359 14.6451 10.0359 17.2487C10.0359 19.8523 12.1466 21.963 14.7501 21.963C15.7091 21.963 16.5984 21.6764 17.343 21.1862L19.8796 23.7228C19.9225 23.7657 19.976 23.7844 20.0296 23.7844C20.0832 23.7844 20.1394 23.763 20.1796 23.7228L21.01 22.8924C21.0297 22.8728 21.0454 22.8494 21.0561 22.8237C21.0668 22.7979 21.0723 22.7703 21.0723 22.7424C21.0723 22.7146 21.0668 22.687 21.0561 22.6612C21.0454 22.6355 21.0297 22.6121 21.01 22.5924ZM14.7501 20.2487C13.0921 20.2487 11.7501 18.9067 11.7501 17.2487C11.7501 15.5907 13.0921 14.2487 14.7501 14.2487C16.4082 14.2487 17.7501 15.5907 17.7501 17.2487C17.7501 18.9067 16.4082 20.2487 14.7501 20.2487Z" fill="#F26526"/>
</svg>
