<svg width="24" height="24" fill="none" xmlns="http://www.w3.org/2000/svg"><path d="M22.866 2.275 21.73 1.14a.221.221 0 0 0-.305 0l-2.039 2.038a5.338 5.338 0 0 0-3.002-.919 5.342 5.342 0 0 0-3.79 1.57l-2.73 2.73a.215.215 0 0 0 0 .302l7.278 7.278a.21.21 0 0 0 .152.061c.054 0 .11-.021.153-.061l2.73-2.73a5.363 5.363 0 0 0 .65-6.79l2.039-2.038a.218.218 0 0 0 0-.306zm-3.98 7.846-1.592 1.59-5.003-5.003 1.59-1.59a3.517 3.517 0 0 1 2.503-1.037c.945 0 1.832.367 2.502 1.036a3.518 3.518 0 0 1 1.036 2.502c0 .946-.37 1.832-1.037 2.502zm-5.095 2.812a.215.215 0 0 0-.303 0l-1.784 1.784L9.285 12.3l1.787-1.787a.215.215 0 0 0 0-.303l-.975-.975a.215.215 0 0 0-.303 0l-1.786 1.787-1.152-1.152a.21.21 0 0 0-.153-.062.227.227 0 0 0-.152.062L3.824 12.6a5.363 5.363 0 0 0-.651 6.79l-2.038 2.038a.215.215 0 0 0 0 .303l1.135 1.136a.222.222 0 0 0 .305 0l2.039-2.039a5.338 5.338 0 0 0 3.003.919 5.342 5.342 0 0 0 3.79-1.57l2.73-2.73a.215.215 0 0 0 0-.302l-1.152-1.152 1.786-1.786a.215.215 0 0 0 0-.303l-.98-.97zm-3.675 5.957a3.517 3.517 0 0 1-2.502 1.037 3.511 3.511 0 0 1-2.502-1.037 3.517 3.517 0 0 1-1.036-2.501c0-.946.367-1.832 1.036-2.502l1.591-1.591 5.004 5.003-1.591 1.591z" fill="#F26526"/></svg>