
<svg width="95px" height="98px" viewBox="0 0 95 98" version="1.1" xmlns="http://www.w3.org/2000/svg" xmlns:xlink="http://www.w3.org/1999/xlink">
    <title>Shape</title>
    <g id="Page-1" stroke="none" stroke-width="1" fill="none" fill-rule="evenodd">
        <g id="noun_tools_750639" fill="#F26526" fill-rule="nonzero">
            <path d="M8.09,56.93 C-1.44320691,47.3939799 -1.44320691,31.9360201 8.09,22.4 L18.15,12.34 C18.4241023,12.0670874 18.7714619,11.8795132 19.15,11.8 C19.4300604,11.7390962 19.7199396,11.7390962 20,11.8 L23.22,12.5 C23.6362928,12.5918875 24.0705995,12.4634837 24.37,12.16 C24.7119959,11.8291129 24.8593861,11.3453707 24.76,10.88 L24.08,7.71 C23.9386738,7.04792114 24.1418763,6.35929035 24.62,5.88 L28.56,1.94 C29.4283824,1.07103615 30.6065106,0.582808427 31.835,0.582808427 C33.0634894,0.582808427 34.2416176,1.07103615 35.11,1.94 L47.93,14.77 C49.7340799,16.5806573 49.7340799,19.5093427 47.93,21.32 L44,25.26 C43.5207096,25.7381237 42.8320789,25.9413262 42.17,25.8 L38.51,25 C38.3014807,24.9577272 38.0872833,25.0395117 37.96,25.21 C37.6077776,25.814034 37.4571607,26.5145777 37.53,27.21 C37.8029325,28.4715161 38.480669,29.6092706 39.46,30.45 L43.37,33.8 C44.0120447,34.2311019 44.3480123,34.9937229 44.2327774,35.7584393 C44.1175426,36.5231556 43.5717591,37.1529058 42.8311849,37.3756614 C42.0906107,37.598417 41.2879803,37.3742531 40.77,36.8 L36.86,33.45 C35.2158879,32.0383204 34.0781414,30.1280298 33.62,28.01 C33.2997551,26.1887204 33.6975983,24.3141978 34.73,22.78 C35.7882993,21.327343 37.6025396,20.6337781 39.36,21.01 L41.95,21.56 L45.12,18.39 C45.3665568,18.1406585 45.3665568,17.7393415 45.12,17.49 L32.27,4.77 C32.151504,4.64906049 31.9893153,4.58090815 31.82,4.58090815 C31.6506847,4.58090815 31.488496,4.64906049 31.37,4.77 L28.21,7.94 L28.66,10.04 C29.0652309,11.8291565 28.5255146,13.7011794 27.23,15 C25.9694328,16.2907245 24.1317232,16.8390123 22.37,16.45 L20.22,15.98 L10.93,25.27 C3.28325452,32.9099055 2.91498843,45.1854418 10.09,53.27 L12.72,51.27 C11.0322062,46.8407469 12.1097689,41.8330193 15.47,38.49 C15.69,38.27 15.9166667,38.06 16.15,37.86 C20.857937,33.9770117 27.8098825,34.5867534 31.77,39.23 L34.87,42.78 C35.5026556,43.616302 35.3819456,44.7992463 34.5934122,45.4905272 C33.8048788,46.1818081 32.6163112,46.146664 31.87,45.41 L28.77,41.86 C26.2670874,38.8554763 21.8183051,38.4105981 18.77,40.86 C18.61,40.9933333 18.4566667,41.1333333 18.31,41.28 C15.8515106,43.7159169 15.2381661,47.4565112 16.79,50.55 C17.3538561,51.6779353 17.0197505,53.048191 16,53.79 L11.45,57.18 C10.4238321,57.9387341 8.99790953,57.8368825 8.09,56.94 L8.09,56.93 Z M77.58,86.45 C75.8521933,86.4134966 74.2163437,85.6643354 73.06,84.38 L58.29,67.75 C57.5554613,66.921573 56.2884272,66.8454614 55.4600001,67.5800001 C54.631573,68.3145388 54.5554614,69.5815729 55.29,70.41 L70.07,87 C71.9605528,89.1076266 74.639366,90.3384326 77.47,90.4 L77.74,90.4 C82.0113403,90.3919299 85.837211,87.7558519 87.3660803,83.7674974 C88.8949495,79.7791429 87.8114731,75.2611486 84.64,72.4 L68,57.68 C67.1715729,56.9454613 65.9045387,57.0215729 65.17,57.85 C64.4354613,58.6784271 64.5115729,59.9454613 65.34,60.68 L82,75.43 C83.9446866,77.2083528 84.5841991,80.0054689 83.6055057,82.4522023 C82.6268124,84.8989357 80.2346716,86.4833904 77.6,86.43 L77.58,86.45 Z M95,25.29 C95.5453652,30.8298131 93.7215502,36.3417706 89.9795212,40.4629563 C86.2374922,44.584142 80.9265839,46.9298253 75.36,46.92 C74.85,46.92 74.36,46.92 73.83,46.86 C71.3365806,46.6470087 68.8766013,47.5475368 67.11,49.32 L47,69.46 C45.2381059,71.2333424 44.3394321,73.6882563 44.54,76.18 C44.9699142,81.6625745 43.0885533,87.0752786 39.3508506,91.1092627 C35.6131478,95.1432468 30.359393,97.4312468 24.86,97.4200413 C24.22,97.4200413 23.57,97.4200413 22.94,97.33 C21.4490415,97.1884553 20.1764172,96.1929976 19.68,94.78 C19.156968,93.3479423 19.5163566,91.7424126 20.6,90.67 L26.37,84.9 C27.5678196,83.7012778 27.5678196,81.7587222 26.37,80.56 L22,76.17 C20.7840907,75.0144412 18.8759093,75.0144412 17.66,76.17 L11.89,81.94 C10.8277862,83.0286571 9.23063704,83.4025226 7.79558811,82.8984321 C6.36053919,82.3943417 5.34805158,81.1037877 5.2,79.59 C4.66701652,74.0601986 6.49363744,68.5624048 10.229864,64.4510321 C13.9660906,60.3396594 19.2645733,57.996934 24.82,58 C25.33,58 25.82,58 26.35,58.06 C28.8428596,58.2688151 31.30113,57.3689125 33.07,55.6 L53.2,35.42 C54.9618941,33.6466576 55.8605679,31.1917437 55.66,28.7 C55.2054689,22.8871998 57.3491892,17.1716556 61.514249,13.0915182 C65.6793089,9.01138074 71.4377949,6.98583867 77.24,7.56 C78.734709,7.69782298 80.0120818,8.69393943 80.51,10.11 C81.033032,11.5420577 80.6736434,13.1475874 79.59,14.22 L73.82,20 C72.6276657,21.2009879 72.6276657,23.1390121 73.82,24.34 L78.2,28.72 C79.4159093,29.8755588 81.3240907,29.8755588 82.54,28.72 L88.31,22.95 C89.3708661,21.8620079 90.9660174,21.487213 92.4003985,21.9889248 C93.8347796,22.4906366 94.848558,23.7779719 95,25.29 L95,25.29 Z M91,25.86 L85.36,31.53 C84.0340565,32.8563442 82.2354506,33.6015102 80.36,33.6015102 C78.4845494,33.6015102 76.6859435,32.8563442 75.36,31.53 L71,27.16 C68.2434988,24.3965391 68.2434988,19.9234609 71,17.16 L76.64,11.52 C72.044401,11.1239311 67.5071378,12.7688278 64.2330176,16.0179105 C60.9588975,19.2669932 59.27922,23.791496 59.64,28.39 C59.9246551,32.0475374 58.5946824,35.6465021 56,38.24 L35.89,58.38 C33.287357,60.9843331 29.6689179,62.3087769 26,62 C21.4081638,61.6516256 16.8949058,63.336788 13.6550601,66.6093595 C10.4152143,69.8819309 8.77549527,74.4118969 9.17,79 L14.8,73.32 C16.1259435,71.9936558 17.9245494,71.2484898 19.8,71.2484898 C21.6754506,71.2484898 23.4740565,71.9936558 24.8,73.32 L29.18,77.7 C31.9365012,80.4634609 31.9365012,84.9365391 29.18,87.7 L23.54,93.34 C23.98,93.34 24.42,93.3900011 24.86,93.3900011 C29.233449,93.3916511 33.4093752,91.568998 36.3819428,88.3610547 C39.3545104,85.1531113 40.8542767,80.8506556 40.52,76.49 C40.2271336,72.8321575 41.5498589,69.2293753 44.14,66.63 L64.28,46.5 C66.8756468,43.9040189 70.4812214,42.5802684 74.14,42.88 C74.54,42.88 74.95,42.88 75.36,42.88 C79.7525948,42.8787659 83.9437901,41.0374063 86.915931,37.8030177 C89.8880719,34.5686291 91.3693139,30.2370422 91,25.86 Z" id="Shape"></path>
        </g>
    </g>
</svg>