<svg xmlns="http://www.w3.org/2000/svg" width="17" height="16" viewBox="0 0 17 16">
    <path fill="#FF7522" fill-rule="nonzero" stroke="#FF7522" stroke-width=".4" d="M2.2.2C1.542.2 1 .742 1 1.4v13.2c0 .658.542 1.2 1.2 1.2h13.2c.658 0 1.2-.542 1.2-1.2V1.4c0-.658-.542-1.2-1.2-1.2H2.2zm0 .8h6.2v6.6H1.8V1.4c0-.229.171-.4.4-.4zm7 0h6.2c.229 0 .4.171.4.4v6.2H9.2V1zM5.156 2.394A.4.4 0 0 0 4.8 2.8V4H3.6a.4.4 0 1 0 0 .8h1.2V6a.4.4 0 1 0 .8 0V4.8h1.2a.4.4 0 1 0 0-.8H5.6V2.8a.4.4 0 0 0-.444-.406zM10.762 4a.4.4 0 1 0 .038.8H14a.4.4 0 1 0 0-.8h-3.2a.4.4 0 0 0-.038 0zM1.8 8.4h6.6V15H2.2a.39.39 0 0 1-.4-.4V8.4zm7.4 0h6.6v6.2a.39.39 0 0 1-.4.4H9.2V8.4zM3.956 9.994a.4.4 0 0 0-.237.687l.919.919-.92.912a.4.4 0 1 0 .563.57l.919-.92.919.92a.4.4 0 1 0 .562-.57l-.918-.912.918-.919a.4.4 0 1 0-.562-.568l-.919.918-.919-.918a.4.4 0 0 0-.325-.12zm6.806.406a.4.4 0 1 0 .038.8H14a.4.4 0 1 0 0-.8h-3.2a.4.4 0 0 0-.038 0zm0 1.6a.4.4 0 1 0 .038.8H14a.4.4 0 1 0 0-.8h-3.2a.4.4 0 0 0-.038 0z"/>
</svg>
