
<svg width="498px" height="508px" viewBox="0 0 498 508" version="1.1" xmlns="http://www.w3.org/2000/svg" xmlns:xlink="http://www.w3.org/1999/xlink">
    <title>noun_Search User_592970</title>
    <g id="Page-1" stroke="none" stroke-width="1" fill="none" fill-rule="evenodd">
        <g id="noun_Search-User_592970" fill="#F26526" fill-rule="nonzero">
            <g id="Group">
                <path d="M356.8,347.8 C358.9,338.3 364.6,330.2 372.8,325 C381,319.8 390.7,318.1 400.2,320.2 L403.8,304.2 C390,301.1 375.9,303.6 364,311.1 C352.1,318.6 343.8,330.4 340.7,344.1 L356.8,347.8 Z" id="Path"></path>
                <path d="M493.6,469.9 L462.2,420.3 L448.4,429.1 L442.8,420.3 C461.9,405.3 474.2,382 474.2,355.9 C474.2,310.6 437.5,274 392.3,274 C387.3,274 382.5,274.5 377.7,275.4 C340.6,246 300.8,246 300.8,246 L246.1,367 L232.8,315 L244,278.6 L175.4,278.6 L186.7,315 L173.4,366.7 L118.7,245.7 C118.7,245.7 31.3,245.7 5.9,329.4 C-0.2,349.5 -1,371 3.8,391.4 L31.2,508 L388.3,508 L405.1,436.6 C413.5,435.3 421.5,432.7 428.9,429 L434.5,437.8 L420.6,446.6 L452,496.2 C458.9,505.7 472.2,512.4 485.9,503.8 C502.4,493.5 497.1,475.4 493.6,469.9 Z M457.8,355.8 C457.8,392 428.5,421.3 392.3,421.3 C356.1,421.3 326.8,392 326.8,355.8 C326.8,319.6 356.1,290.3 392.3,290.3 C428.5,290.3 457.8,319.6 457.8,355.8 Z M203.8,314.6 L197.7,295 L221.8,295 L215.7,314.6 L235.3,390.5 L209.7,447.1 L184.1,390.5 L203.8,314.6 Z M332.7,491.6 L332.7,442.4 L316.3,442.4 L316.3,491.6 L103.3,491.6 L103.3,442.4 L86.9,442.4 L86.9,491.6 L44.2,491.6 L19.8,387.8 C15.6,370.2 16.3,351.7 21.6,334.3 C33.6,295.3 68.1,267.1 108.5,262.8 L209.8,486.9 L311.1,262.8 C328.5,264.6 344.9,270.9 359.1,280.8 C330.4,293.5 310.3,322.2 310.3,355.7 C310.3,399.5 344.8,435.2 388.1,437.4 L375.4,491.5 L332.7,491.5 L332.7,491.6 Z M477.2,490 C473.5,492.4 468.2,491.1 465.9,487.5 L443.2,451.7 L457,442.9 L479.7,478.7 C480.9,480.5 483,486.3 477.2,490 Z" id="Shape"></path>
                <path d="M209.8,262.2 C272.4,262.2 316.3,161.2 316.3,106.5 C316.3,47.8 268.5,0 209.8,0 C151.1,0 103.3,47.8 103.3,106.5 C103.3,161.2 147.2,262.2 209.8,262.2 Z M209.8,16.4 C240.8,16.4 268.2,32.1 284.4,56 C278.4,62.4 271.6,65.4 264.7,64.7 C255.6,63.7 246.8,56.5 241.8,45.7 L236.1,33.4 L227.9,44.2 C194.2,88.5 148.5,71.5 131.2,62.7 C146.5,35.1 176,16.4 209.8,16.4 Z M124.5,77.5 C134.9,82.6 153,89.6 173.4,89.6 C192.7,89.6 214.2,83.3 233.2,63.2 C241,73.3 251.5,79.8 263,81 C273.6,82.1 283.8,78.6 292.6,70.9 C297.3,81.8 300,93.9 300,106.5 C300,159 257.9,245.8 209.9,245.8 C161.9,245.8 119.8,159 119.8,106.5 C119.7,96.4 121.4,86.6 124.5,77.5 Z" id="Shape"></path>
            </g>
        </g>
    </g>
</svg>