<svg width="17" height="16" viewBox="0 0 17 16" version="1.1" xmlns="http://www.w3.org/2000/svg" xmlns:xlink="http://www.w3.org/1999/xlink">
    <title>noun_Learning_1174746</title>
    <g id="Page-1" stroke="none" stroke-width="1" fill="none" fill-rule="evenodd">
        <g id="noun_Learning_1174746" fill="#F26526" fill-rule="nonzero">
            <path d="M9.39,15 C9.28817052,14.9979617 9.18847212,14.9704587 9.1,14.92 L3.76,12 C3.56494466,11.8946125 3.44242642,11.6916917 3.44,11.47 L3.44,8.79 C3.44410501,8.57928143 3.55669357,8.3856095 3.7377756,8.27777413 C3.91885764,8.16993876 4.1427769,8.16321839 4.33,8.26 L9.33,11.02 L14.33,8.27 C14.5166047,8.16696579 14.7438652,8.17067207 14.9270109,8.27973636 C15.1101566,8.38880065 15.2216435,8.58684625 15.22,8.8 L15.22,11.49 C15.2345041,11.6857519 15.1523411,11.8762205 15,12 L9.66,14.91 C9.57869253,14.9615829 9.48599572,14.9924819 9.39,15 Z M4.23,11.37 L9.38,14.18 L14.53,11.37 L14.53,9.1 L9.67,11.75 C9.48950757,11.8496509 9.27049243,11.8496509 9.09,11.75 L4.23,9.1 L4.23,11.37 Z M17.31,11.8600424 C16.6527811,11.8600424 16.12,11.3272189 16.12,10.67 L16.12,6.67 L9.67,10.19 C9.48950757,10.2896509 9.27049243,10.2896509 9.09,10.19 L0.81,5.65 C0.619572917,5.54149487 0.501993377,5.33917079 0.501993377,5.12 C0.501993377,4.90082921 0.619572917,4.69850513 0.81,4.59 L9.1,0.07 C9.28049243,-0.0296508807 9.49950757,-0.0296508807 9.68,0.07 L18.19,4.71 C18.3866153,4.8137429 18.5097554,5.01769363 18.5100424,5.24 L18.5100424,10.66 C18.5126928,10.9790777 18.3871295,11.2858694 18.1614994,11.5114994 C17.9358694,11.7371295 17.6290777,11.8626928 17.31,11.8600424 L17.31,11.8600424 Z M16.31,5.73 C16.642982,5.73545945 16.9100448,6.00697322 16.91,6.34 L16.91,10.67 C16.940984,10.8641182 17.1084246,11.0069524 17.305,11.0069524 C17.5015754,11.0069524 17.669016,10.8641182 17.7,10.67 L17.7,5.36 L9.39,0.82 L1.5,5.12 L9.39,9.42 L16,5.81 C16.0941801,5.75574767 16.2013281,5.72809657 16.31,5.73 Z" id="Shape"></path>
        </g>
    </g>
</svg>