<svg xmlns="http://www.w3.org/2000/svg" width="300" height="125.639" viewBox="0 0 300 125.639" fill="#FFF">
<title>Agora</title>
<path d="M200.62,118.6"/>
<path fill="none" stroke="#1B1C20" stroke-width="0.311" d="M200.62,118.6z"/>
<polyline fill="#9C080E" points="300,0,0,0,0,125.45,300,125.45"/>
<line fill="#030103" y2="1.385" x2="146.04" y1="1.385" x1="300"/>
<path d="M272.49,81.098s-4.561,2.963-10.145,2.963c-4.101,0-6.95-2.051-6.95-6.951,0-7.182,4.328-9.004,13.105-9.004h3.989v12.992m27.24,13.676v-10.713h-11.279v-28.717c0-16.64-9.914-19.83-21.765-19.83-11.397,0-21.769,3.646-21.769,3.646v12.648s10.485-3.419,19.033-3.419c5.468,0,8.547,0.911,8.547,6.838v3.877h-10.256c-10.145,0-22.794,3.305-22.794,18.919,0,14.586,9.687,17.891,17.097,17.891,10.027,0,15.953-6.154,15.953-6.154l1.14,5.014h26.096zm-61.7-43.649v-14.7s-2.393-0.911-6.151-0.911c-6.725,0-9.46,4.786-10.715,7.863l-1.141-6.724h-25.07v10.713h10.257v36.695h-10.257v10.713h38.746v-10.713h-12.535v-29.629c1.825-1.595,5.244-4.217,9.914-4.217,2.97,0,6.96,0.91,6.96,0.91zm-61.26,14.59c0,16.637-6.495,18.802-11.625,18.802-5.125,0-11.624-2.391-11.624-18.802,0-16.642,5.356-18.919,11.624-18.919,6.28,0,11.63,1.707,11.63,18.919zm15.96,0c0-25.644-15.043-30.201-27.582-30.201-12.647,0-27.578,5.354-27.578,30.201,0,25.641,15.384,30.199,27.578,30.199,12.08,0.001,27.58-4.102,27.58-30.199zm-72.79,34.077c0,5.467-5.243,7.178-16.298,7.178-7.294,0-10.939-2.165-10.939-7.748,0-2.396,0.796-4.219,1.821-6.042l15.386,0.911c7.98,0.456,10.03,1.367,10.03,5.701zm-5.47-44.564c0,7.98-4.559,9.917-9.462,9.917-4.784,0-9.457-1.938-9.457-9.917,0-7.522,5.014-9.913,9.457-9.913,4.56-0.001,9.46,2.051,9.46,9.913zm21.2-7.409v-11.166h-20.743c-2.849,0-4.33-1.139-9.917-1.139-13.559,0-24.615,5.812-24.615,19.83,0,7.749,4.105,12.535,7.637,15.041-3.989,2.165-7.408,5.701-7.408,11.283,0,4.103,1.825,6.951,4.444,8.775-1.709,1.139-6.721,4.9-6.721,11.512,0,11.281,9.115,15.61,25.299,15.61,20.058,0,30.771-3.986,30.771-19.372,0-13.563-8.776-15.5-19.944-16.184l-16.41-1.025c-3.419-0.227-5.245-0.91-5.245-3.191,0-1.482,1.255-2.963,2.849-3.989,1.938,0.569,5.698,1.254,9.343,1.254,12.312,0,24.503-3.986,24.503-19.261,0-4.898-3.189-7.978-3.189-7.978h9.339zm-90.237,14.591h-15.274l7.638-37.268,7.636,37.268zm30.314,32.364v-10.713h-9.234l-17.549-71.342h-22.338l-17.548,71.342h-9.075v10.713h34.603v-10.713h-9.003l2.052-9.343h20.287l4.33,20.056h23.475z"/>
<g fill="none" stroke="#030103" stroke-width="1.246">
<line y2="1.448" x2="300" y1="1.448"/>
<line y2="125.02" x2="300" y1="125.02"/>
</g>
<path d="M286.83,110.95c0,3.815-1.775,4.228-2.753,4.228-0.977,0-2.753-0.436-2.753-4.228,0-3.882,1.561-4.249,2.753-4.249s2.75,0.28,2.75,4.25m1.96,0c0-5.007-2.666-5.745-4.704-5.745s-4.706,0.869-4.706,5.745c0,4.986,2.645,5.744,4.706,5.744s4.7-0.66,4.7-5.73zm-10.75,5.52v-1.496h-1.95v-14.112h-3.905v1.496h1.954v12.616h-1.954v1.496h5.862zm-7.31,0v-1.496h-1.947v-9.559h-3.902v1.495h1.954v6.719s-1.522,1.303-2.931,1.303c-1.298,0-1.624-0.672-1.624-2.04v-7.477h-3.901v1.495h1.947v6.414c0,2.539,1.301,3.362,3.144,3.362s3.359-1.582,3.359-1.582l0.219,1.365h3.679zm-16.61-2.62s-1.212,1.257-2.642,1.257c-0.979,0-1.694-0.499-1.694-1.755,0-1.889,1.236-2.256,2.948-2.256h1.388v2.752zm3.9,2.62v-1.496h-1.95v-6.046c0-3.166-1.735-3.73-3.817-3.73-1.801,0-3.448,0.585-3.448,0.585v1.649c0.437-0.133,2.105-0.586,3.144-0.586,1.324,0,2.168,0.152,2.168,1.731v1.194h-1.884c-1.953,0-4.401,0.627-4.401,3.813,0,2.498,1.929,3.103,3.207,3.103,2.04,0,3.078-1.474,3.078-1.474l0.219,1.257h3.681zm-14.31-5.59c0,3.556-1.541,4.248-2.864,4.248-0.997,0-1.82-0.367-2.125-0.477l0.003-6.74c0.433-0.411,1.406-1.108,2.601-1.108,1.29,0,2.39,0.76,2.39,4.08zm1.95,0c0-5.029-2.493-5.68-4.12-5.68-1.517,0-2.317,0.738-2.818,1.277l-0.216-1.06h-3.685v1.495h1.951v12.184h-1.951v1.496h5.853v-1.496h-1.949v-3.037c0.345,0.219,1.211,0.63,2.274,0.63,1.29,0,4.67-0.58,4.67-5.81zm-21.25,0.07c0,3.815-1.779,4.228-2.754,4.228-0.976,0-2.753-0.436-2.753-4.228,0-3.882,1.559-4.249,2.753-4.249,1.18,0,2.75,0.28,2.75,4.25zm1.95,0c0-5.007-2.667-5.745-4.704-5.745-2.038,0-4.705,0.869-4.705,5.745,0,4.986,2.646,5.744,4.705,5.744,2.05,0.01,4.7-0.66,4.7-5.73zm-13.19-8.18v-1.932c-0.582,0.349-0.974,0.543-1.388,0.543-1.04,0-1.82-0.738-3.229-0.738-0.606,0-1.216,0.219-1.887,0.609v1.951c0.671-0.434,1.149-0.652,1.647-0.652,1.216,0,1.952,0.783,3.273,0.783,0.51,0.01,1.01-0.19,1.59-0.56zm-1.47,11.08s-1.215,1.257-2.645,1.257c-0.978,0-1.69-0.499-1.69-1.755,0-1.889,1.236-2.256,2.947-2.256h1.388v2.752zm3.9,2.62v-1.496h-1.952v-6.046c0-3.166-1.735-3.73-3.817-3.73-1.796,0-3.445,0.585-3.445,0.585v1.649c0.433-0.133,2.103-0.586,3.145-0.586,1.32,0,2.167,0.152,2.167,1.731v1.194h-1.887c-1.949,0-4.401,0.627-4.401,3.813,0,2.498,1.929,3.103,3.21,3.103,2.037,0,3.078-1.474,3.078-1.474l0.216,1.257h3.694zm-12.31-3.03c0-1.975-1.236-2.753-2.579-3.23l-1.257-0.454c-0.606-0.219-1.563-0.437-1.563-1.562,0-0.997,0.738-1.365,1.995-1.365,0.63,0,1.15,0.108,1.476,0.174v1.884h1.496v-3.186s-1.389-0.499-3.037-0.499c-2.229,0-3.771,1.039-3.771,3.099,0,1.954,1.364,2.581,2.405,2.948l1.259,0.456c0.932,0.347,1.713,0.692,1.713,1.735,0,1.322-1.108,1.583-2.233,1.583-0.564,0-1.149-0.108-1.475-0.195v-2.081h-1.496v3.426s1.54,0.519,2.971,0.519c2.02,0,4.1-0.52,4.1-3.25z"/>
</svg>