<svg xmlns="http://www.w3.org/2000/svg" viewBox="0 0 623 96">
  <g fill="none" fillRule="nonzero">
    <path
      fill="#3575AB"
      d="M271 21.004a4.738 4.738 0 0 1 3.543 1.385A4.98 4.98 0 0 1 276 25.976a4.916 4.916 0 0 1-1.463 3.56A4.676 4.676 0 0 1 271 30.878c-3.043 0-5-2.075-5-4.9a4.98 4.98 0 0 1 1.457-3.588A4.738 4.738 0 0 1 271 21.004zm-4.31 52.987v-37.32h8.62V74l-8.62-.009zM306.62 36.104V22h8.712v44.56l.668 7.318h-7.536l-.589-4.032-.298-.072a11.766 11.766 0 0 1-10.031 5.223C286.03 74.997 283 65.893 283 56.559c0-12.763 6.5-21.316 17.866-21.316a18.5 18.5 0 0 1 5.753.861zm0 6.795a13.626 13.626 0 0 0-5.535-1.19c-7.026 0-9.372 6.714-9.372 14.032 0 6.786 1.625 12.683 7.598 12.683 4.506 0 7.308-3.286 7.308-6.217V42.9zM352.555 46.17c0 11.266-13.966 12.729-20.757 12.798.297 4.763 3.012 9.369 9.244 9.369a15.833 15.833 0 0 0 9.243-3.222L353 70.897a21.343 21.343 0 0 1-12.91 4.1c-12.106 0-17.09-7.757-17.09-18.736C323 45.508 329.232 36 340.894 36c7.192 0 11.66 3.657 11.66 10.17zm-12.176-3.953c-5.866 0-8.65 5.703-8.877 11.118 3.962.078 13.284-1.167 13.284-6.8 0-2.708-1.763-4.318-4.407-4.318zM359.584 73V42.48L359 36.104h7.327l.733 4.613a13.225 13.225 0 0 1 11.287-5.712c7.335 0 11.653 4.099 11.653 12.749v25.21h-8.723V49.691c0-4.465-.802-7.91-5.495-7.91a7.44 7.44 0 0 0-7.475 7.395V73h-8.723zM423.965 63.887l3.36 5.862a20.892 20.892 0 0 1-12.994 4.248c-10.985 0-17.331-6.813-17.331-19.279 0-14.734 9.332-19.715 17.25-19.715 5.49-.098 10.659 2.526 13.75 6.979l-5.608 4.545c-1.938-2.347-4.63-4.545-7.999-4.545-5.004 0-8.514 4.03-8.514 12.387 0 7.624 2.835 12.684 9.483 12.684 2.924-.017 5.537-.968 8.603-3.166zM437.004 21.004a4.736 4.736 0 0 1 3.543 1.386A4.969 4.969 0 0 1 442 25.976a4.905 4.905 0 0 1-1.459 3.56 4.674 4.674 0 0 1-3.537 1.341c-3.045 0-5.004-2.075-5.004-4.9a4.978 4.978 0 0 1 1.458-3.588 4.744 4.744 0 0 1 3.546-1.385zm-4.313 52.987v-37.32h8.627V74l-8.627-.009zM481.341 65.987L482 73.04h-7.6l-.518-3.898-.299-.07a11.954 11.954 0 0 1-10.113 4.92c-10.41 0-14.47-7.34-14.47-17.844C449 43.223 455.493 35 468.197 35a41.781 41.781 0 0 1 13.18 2.57l-.036 28.417zm-8.716-23.646a14.69 14.69 0 0 0-5.535-.953c-7.028 0-9.383 6.537-9.383 14.463 0 6.117 1.485 11.902 7.679 11.902 4.577 0 7.24-3.234 7.24-6.388V42.34zM499.467 73h-8.798V42.038L490 36.102h7.25l.88 5.351c1.328-3.796 4.899-6.37 8.948-6.45 2.07-.042 4.114.464 5.922 1.466l-1.557 7.402a10.932 10.932 0 0 0-5.28-1.466c-3.985 0-6.572 3.16-6.722 7.41L499.467 73zM522 21.004a4.738 4.738 0 0 1 3.543 1.385A4.98 4.98 0 0 1 527 25.976a4.916 4.916 0 0 1-1.463 3.56A4.676 4.676 0 0 1 522 30.878c-3.043 0-5-2.075-5-4.9a4.98 4.98 0 0 1 1.457-3.588A4.738 4.738 0 0 1 522 21.004zm-4.31 52.987v-37.32h8.62V74l-8.62-.009zM535.614 64.8c2.438 1.57 6.804 3.57 10.563 3.57 3.107 0 5.625-1.42 5.625-4.802 0-3.382-2.808-4.418-6.285-5.47-5.405-1.58-11.443-3.374-11.443-11.174 0-7.8 6.364-11.923 13.538-11.923A18.925 18.925 0 0 1 561 40.356l-4.234 5.283c-2.808-2.472-5.915-4.043-9.022-4.043-2.64 0-5.176 1.348-5.176 4.346 0 3.454 3.107 4.463 6.584 5.48 5.396 1.722 11.39 3.9 11.39 11.602 0 7.701-5.695 11.976-14.004 11.976-6.355 0-11.61-2.33-13.538-3.829l2.614-6.371zM575.85 22v14.357h10.057v6.947h-10.056v18.992c0 4.554 1.773 5.906 4.842 5.906a9.964 9.964 0 0 0 5.072-1.574L588 72.383A17.634 17.634 0 0 1 578.529 75c-11.627 0-11.529-7.17-11.529-12.41V22h8.85zM622.332 65.988L623 73.04h-7.607l-.51-3.898-.298-.07a11.958 11.958 0 0 1-10.11 4.92c-10.408 0-14.475-7.34-14.475-17.844C590 43.223 596.5 35 609.201 35a41.716 41.716 0 0 1 13.175 2.57l-.044 28.418zm-8.704-23.647a14.7 14.7 0 0 0-5.543-.953c-7.026 0-9.372 6.537-9.372 14.463 0 6.117 1.476 11.902 7.677 11.902 4.576 0 7.238-3.234 7.238-6.388V42.34zM135.827 74H123V24h18.205C152.912 24 160 29.482 160 39.858c0 11.656-8.428 17.52-20.365 17.52h-3.808V74zm2.91-26.652c4.927 0 8.057-1.51 8.057-6.7 0-5.187-2.645-6.538-7.379-6.538h-3.588v13.238h2.91zM176.301 73h-12.34V42.374L163 35.111h10.052l.961 5.25c2-4.663 5.694-6.361 8.873-6.361 2.116.014 4.203.492 6.114 1.4l-1.991 10.3a11.554 11.554 0 0 0-5.328-1.26c-3.179 0-5.319 1.994-5.397 5.407L176.3 73zM221.625 45.76c0 10.947-12.386 13.133-19.784 13.588.295 3.4 2.865 6.192 7.478 6.192a17.609 17.609 0 0 0 9.361-3.168L222 70.68a25.23 25.23 0 0 1-14.501 4.318C194.21 74.997 189 66.967 189 55.52 189 44.564 195.496 34 208.41 34c7.932-.044 13.215 3.828 13.215 11.76zm-13.894-2.945c-3.775 0-6.247 3.694-6.497 8.922 4.079-.223 9.442-2.114 9.442-5.808a2.819 2.819 0 0 0-2.945-3.114zM248.12 74h-10.24L224 35h7.976c2.729.003 5.144 1.783 5.975 4.404l5.084 15.853L249.455 35H262l-13.88 39z"
    />
    <g>
      <rect width="96" height="96" fill="#F26526" rx="13.55" />
      <path
        fill="#D65A29"
        d="M86.212 96H48V37.826C48 16.936 65.108 0 86.212 0 92.17 0 97 4.781 97 10.68v74.667C96.98 91.233 92.158 95.995 86.212 96z"
      />
      <path
        fill="#D65A29"
        d="M62.322 78.775L52.71 87.78a4.623 4.623 0 0 1-6.378-.114l-8.796-8.873a5.234 5.234 0 0 1-1.496-4.344l7.748-42.532c.304-1.706 1.823-2.943 3.583-2.917h5.85c1.78-.02 3.307 1.248 3.583 2.979l7.166 42.4a5.238 5.238 0 0 1-1.648 4.396z"
      />
      <path
        fill="#DDD"
        d="M60.3 77.758l-9.605 9.02a4.609 4.609 0 0 1-6.373-.115l-8.78-8.888a5.234 5.234 0 0 1-1.504-4.333l7.77-42.526c.303-1.706 1.82-2.942 3.58-2.916h5.844c1.78-.02 3.305 1.247 3.58 2.978l7.161 42.393a5.239 5.239 0 0 1-1.674 4.387z"
      />
      <path
        fill="#DDD"
        d="M55 32h-5l1.727-3.867a.234.234 0 0 1 .159-.127.228.228 0 0 1 .195.047l1.598 1.345c.24.203.43.463.552.758L55 32z"
      />
      <path
        fill="#FFF"
        d="M59.361 76.772l-9.623 9.004a4.633 4.633 0 0 1-6.385-.106l-8.807-8.872a5.23 5.23 0 0 1-1.507-4.344l7.73-42.528c.3-1.71 1.823-2.95 3.588-2.926h5.847c1.783-.02 3.312 1.248 3.588 2.978l7.174 42.406a5.233 5.233 0 0 1-1.605 4.388z"
      />
      <path
        fill="#D65A29"
        d="M57.815 11H42.199c-1.614 0-2.672 2.128-1.987 3.98l2.768 7.473c.58 1.466 1.931 2.457 3.47 2.547h7.2c1.575-.081 2.957-1.102 3.532-2.61l2.602-7.454c.694-1.825-.373-3.936-1.97-3.936z"
      />
      <path
        fill="#DDD"
        d="M55.827 10h-15.62c-1.614 0-2.681 2.128-1.996 3.98l2.768 7.482c.587 1.46 1.936 2.445 3.471 2.538h7.186c1.574-.084 2.955-1.104 3.531-2.61l2.604-7.454c.72-1.843-.347-3.936-1.944-3.936z"
      />
      <path
        fill="#DDD"
        d="M41 21.561L43.173 23 44 21zM56.282 11.32H54l.6-2.197a.18.18 0 0 1 .11-.112.175.175 0 0 1 .154.016l.78.413.13.086A8.565 8.565 0 0 1 58 12l-1.718-.68z"
      />
      <path
        fill="#FFF"
        d="M54.83 9H39.207c-1.614 0-2.681 2.128-1.996 3.98l2.769 7.482c.587 1.46 1.936 2.445 3.472 2.538h7.177c1.577-.082 2.962-1.103 3.541-2.61l2.604-7.454C57.486 11.093 56.427 9 54.83 9z"
      />
    </g>
  </g>
</svg>