<svg xmlns="http://www.w3.org/2000/svg" width="366" height="57" viewBox="0 0 366 57">
    <defs>
    <path id="logowa" d="M0 0h366v56.615H0z" />
    </defs>
    <g fill="none" fillRule="evenodd">
    <mask id="logowb" fill="#fff">
        <use xlinkHref="#logowa" />
    </mask>
    <path
        fill="#FEFEFE"
        d="M156.795 43.52h5.187V21.594h-5.187V43.52zm2.572-31.122c1.787 0 3.008 1.308 3.008 2.92 0 1.656-1.265 2.877-3.008 2.877-1.831 0-3.008-1.22-3.008-2.877 0-1.612 1.221-2.92 3.008-2.92zM180.157 25.43a8.097 8.097 0 0 0-3.27-.696c-4.14 0-5.535 3.923-5.535 8.194 0 3.967.959 7.41 4.49 7.41 2.659 0 4.315-1.918 4.315-3.618V25.43zm0-3.965v-8.238h5.144v26.02l.39 4.273h-4.444l-.35-2.354-.174-.044c-1.35 2.005-3.53 3.052-5.927 3.052-6.8 0-8.587-5.318-8.587-10.766 0-7.454 3.836-12.466 10.548-12.466 1.395 0 2.398.218 3.4.523zM199.944 24.646c-3.487 0-5.144 3.4-5.274 6.625 2.353.044 7.889-.697 7.889-4.053 0-1.613-1.046-2.572-2.615-2.572M207.179 27c0 6.712-8.325 7.584-12.336 7.627.175 2.834 1.788 5.58 5.493 5.58 2.572 0 4.446-1.176 5.492-1.918l1.612 3.444c-.696.61-3.573 2.44-7.671 2.44-7.191 0-10.155-4.62-10.155-11.157 0-6.407 3.704-12.074 10.635-12.074 4.27 0 6.93 2.18 6.93 6.058M210.926 43.52V25.388l-.349-3.792h4.36l.435 2.746c1.526-2.18 3.835-3.4 6.712-3.4 4.36 0 6.931 2.44 6.931 7.584V43.52h-5.187V29.66c0-2.66-.48-4.707-3.269-4.707-2.615 0-4.446 2.134-4.446 4.4V43.52h-5.187zM248.933 38.114l1.961 3.487c-1.699 1.395-4.358 2.53-7.584 2.53-6.407 0-10.112-4.055-10.112-11.465 0-8.76 5.45-11.725 10.068-11.725 2.834 0 5.972 1.134 8.021 4.141l-3.27 2.702c-1.133-1.395-2.702-2.702-4.663-2.702-2.92 0-4.969 2.397-4.969 7.366 0 4.533 1.656 7.541 5.535 7.541 1.7 0 3.226-.566 5.013-1.875M254.25 43.52h5.187V21.594h-5.187V43.52zm2.571-31.122c1.787 0 3.008 1.308 3.008 2.92 0 1.656-1.265 2.877-3.008 2.877-1.831 0-3.008-1.22-3.008-2.877 0-1.612 1.221-2.92 3.008-2.92zM277.61 25.3c-.652-.305-1.917-.566-3.27-.566-4.14 0-5.534 3.879-5.534 8.587 0 3.618.872 7.06 4.534 7.06 2.702 0 4.27-1.917 4.27-3.792v-11.29zm5.145 14.035l.39 4.185h-4.488l-.305-2.311-.175-.043c-1.351 1.96-3.574 2.92-5.97 2.92-6.147 0-8.544-4.358-8.544-10.592 0-7.671 3.836-12.552 11.333-12.552 1.438 0 4.62.348 7.759 1.525v16.868zM293.475 43.52h-5.187V25.126l-.392-3.53h4.271l.524 3.182c.96-2.485 3.095-3.836 5.273-3.836 1.308 0 2.53.306 3.488.872l-.915 4.402c-.96-.523-1.962-.872-3.095-.872-2.355 0-3.88 1.874-3.967 4.403V43.52zM304.241 43.52h5.187V21.594h-5.187V43.52zm2.571-31.122c1.787 0 3.008 1.308 3.008 2.92 0 1.656-1.265 2.877-3.008 2.877-1.831 0-3.008-1.22-3.008-2.877 0-1.612 1.221-2.92 3.008-2.92zM314.438 38.245c1.438.916 4.011 2.093 6.233 2.093 1.83 0 3.313-.828 3.313-2.79 0-1.96-1.656-2.572-3.705-3.182-3.182-.915-6.756-1.96-6.756-6.494 0-4.533 3.749-6.93 7.977-6.93 3.268 0 6.102 1.307 7.889 3.094l-2.484 3.051c-1.656-1.439-3.488-2.354-5.319-2.354-1.569 0-3.05.785-3.05 2.53 0 2.003 1.831 2.57 3.879 3.18 3.181 1.003 6.712 2.267 6.712 6.756 0 4.533-3.356 6.975-8.238 6.975-3.748 0-6.843-1.352-7.976-2.224l1.525-3.705zM338.236 13.227v8.369h5.884v4.053h-5.884v11.07c0 2.66 1.046 3.445 2.833 3.445 1.177 0 2.267-.48 2.964-.916l1.307 3.357c-1.307.915-3.486 1.525-5.535 1.525-6.8 0-6.756-4.184-6.756-7.235V13.227h5.187zM360.464 25.3c-.653-.305-1.918-.566-3.269-.566-4.14 0-5.536 3.879-5.536 8.587 0 3.618.872 7.06 4.534 7.06 2.703 0 4.271-1.917 4.271-3.792v-11.29zm5.144 14.035L366 43.52h-4.489l-.305-2.311-.175-.043c-1.35 1.96-3.573 2.92-5.97 2.92-6.146 0-8.543-4.358-8.543-10.592 0-7.671 3.835-12.552 11.332-12.552 1.438 0 4.62.348 7.76 1.525v16.868zM81.116 27.976c2.896 0 4.74-.878 4.74-3.907 0-2.985-1.58-3.82-4.345-3.82h-2.108v7.727h1.713zm-1.713 15.539h-7.55v-29.19h10.71c6.893 0 11.063 3.204 11.063 9.26 0 6.805-4.96 10.229-11.984 10.229h-2.24v9.7zM103.33 43.515h-7.331V25.342l-.57-4.302h5.969l.57 3.117c1.186-2.766 3.38-3.775 5.268-3.775 1.098 0 2.502.263 3.644.834l-1.186 6.102c-.922-.484-2.02-.747-3.16-.747-1.888 0-3.161 1.185-3.204 3.204v13.74zM121.811 25.518c-2.195 0-3.644 2.15-3.775 5.18 2.37-.132 5.487-1.23 5.487-3.38 0-1.098-.658-1.8-1.712-1.8m8.076 1.712c0 6.364-7.198 7.638-11.5 7.9.175 1.976 1.668 3.6 4.346 3.6 2.106 0 4.038-.922 5.443-1.844l1.931 4.829c-.22.219-3.512 2.502-8.428 2.502-7.725 0-10.754-4.653-10.754-11.325 0-6.364 3.775-12.51 11.281-12.51 4.61 0 7.681 2.239 7.681 6.848M145.506 43.955h-6.082l-8.239-22.966h4.736a3.729 3.729 0 0 1 3.547 2.58l3.018 9.33 3.812-11.91h7.447l-8.239 22.966z"
        mask="url(#logowb)"
    />
    <path
        fill="#F26526"
        d="M49.586 0H7.028A7.029 7.029 0 0 0 0 7.028v42.559a7.029 7.029 0 0 0 7.03 7.028h42.557a7.028 7.028 0 0 0 7.03-7.028V7.028A7.028 7.028 0 0 0 49.585 0"
        mask="url(#logowb)"
    />
    <path
        fill="#D65A29"
        d="M50.32 56.615H28V22.32C28 9.993 37.994 0 50.32 0a6.295 6.295 0 0 1 6.296 6.295V50.32a6.295 6.295 0 0 1-6.295 6.295"
        mask="url(#logowb)"
    />
    <path
        fill="#D45119"
        d="M36.443 46.748l-5.566 5.3c-1.032.982-2.7.953-3.693-.067l-5.092-5.222a3.102 3.102 0 0 1-.87-2.556l4.487-25.037c.154-.987 1.033-1.718 2.067-1.718h3.385c1.048 0 1.933.75 2.073 1.752l4.17 24.961a3.115 3.115 0 0 1-.961 2.587"
        mask="url(#logowb)"
    />
    <path
        fill="#E4E3E4"
        d="M35.44 46.178l-5.565 5.3c-1.033.983-2.7.953-3.693-.067l-5.093-5.221a3.11 3.11 0 0 1-.87-2.557l4.488-25.036c.154-.988 1.033-1.718 2.067-1.718h3.385c1.048 0 1.933.749 2.072 1.75l4.171 24.963a3.112 3.112 0 0 1-.962 2.586"
        mask="url(#logowb)"
    />
    <path
        fill="#E4E3E4"
        d="M32.26 18.77h-3l1.03-2.248a.137.137 0 0 1 .211-.048l.962.8c.143.123.257.275.332.446l.464 1.05z"
        mask="url(#logowb)"
    />
    <path
        fill="#FEFEFE"
        d="M34.438 45.323l-5.565 5.3c-1.033.982-2.7.953-3.694-.067l-5.092-5.222a3.109 3.109 0 0 1-.87-2.556l4.488-25.037c.154-.987 1.033-1.718 2.067-1.718h3.385c1.048 0 1.933.75 2.072 1.752L35.4 42.736a3.113 3.113 0 0 1-.962 2.587"
        mask="url(#logowb)"
    />
    <path
        fill="#D45119"
        d="M33.958 6.893h-9.342c-.965 0-1.6 1.24-1.19 2.319l1.655 4.354c.438.917 1.233 1.479 2.095 1.479h4.29c.873 0 1.68-.58 2.112-1.517l1.578-4.341c.392-1.076-.245-2.294-1.198-2.294"
        mask="url(#logowb)"
    />
    <path
        fill="#E4E3E4"
        d="M32.956 6.323h-9.342c-.964 0-1.6 1.24-1.19 2.318l1.655 4.355c.438.916 1.233 1.478 2.094 1.478h4.292c.873 0 1.679-.579 2.112-1.517l1.578-4.34c.392-1.077-.245-2.294-1.2-2.294"
        mask="url(#logowb)"
    />
    <path
        fill="#E4E3E4"
        d="M23.837 13.075l1.105.943.422-1.309zM33.154 6.79H31.89l.333-1.186a.095.095 0 0 1 .143-.052l.433.222c.026.014.05.03.075.045.383.26 1.069.971 1.227 1.337l-.948-.366z"
        mask="url(#logowb)"
    />
    <path
        fill="#FEFEFE"
        d="M31.954 5.468h-9.342c-.964 0-1.6 1.24-1.19 2.319l1.655 4.354c.438.917 1.233 1.479 2.094 1.479h4.292c.873 0 1.679-.58 2.11-1.517l1.58-4.341c.39-1.076-.245-2.294-1.2-2.294"
        mask="url(#logowb)"
    />
    </g>
</svg>